<svg width="431" height="405" viewBox="0 0 431 405" fill="none" xmlns="http://www.w3.org/2000/svg">
<mask id="mask0" mask-type="alpha" maskUnits="userSpaceOnUse" x="0" y="0" width="431" height="405">
<rect width="431" height="405" fill="#C4C4C4"/>
</mask>
<g mask="url(#mask0)">
<path d="M16.963 61.1001H416.037C424.817 61.1001 432 65.6001 432 71.1001V380.1C432 385.6 424.817 390.1 416.037 390.1H16.963C8.18333 390.1 1 385.6 1 380.1V71.1001C1 65.6001 8.18333 61.1001 16.963 61.1001Z" fill="white"/>
<path d="M98.0571 69.1285C94.1571 68.6285 90.1571 69.3285 86.4571 71.2285C79.8571 74.7285 76.1571 81.2285 76.3571 88.6285C76.6571 95.8285 73.2571 102.628 67.4571 106.828C61.4571 111.228 58.6571 118.128 60.0571 125.428C61.3571 132.728 66.4571 138.228 73.5571 140.328C80.4571 142.328 85.9571 147.528 88.2571 154.328C90.6571 161.328 96.4571 166.128 103.857 167.128C111.257 168.128 118.157 165.128 122.257 158.928C126.257 153.028 133.057 149.428 140.257 149.328C147.657 149.228 154.057 145.328 157.257 138.628C160.457 132.028 159.657 124.528 155.057 118.728C150.657 113.028 149.257 105.628 151.457 98.8285C153.657 91.8285 151.857 84.5285 146.457 79.4285C141.057 74.3285 133.657 72.7285 126.657 75.2285C119.857 77.6285 112.357 76.6285 106.457 72.4285C104.057 70.7285 101.057 69.5285 98.0571 69.1285ZM103.557 169.928C95.2571 168.828 88.3571 163.128 85.7571 155.228C83.7571 149.328 78.9571 144.728 72.8571 143.028C64.7571 140.728 58.8571 134.128 57.3571 125.928C55.8571 117.728 59.1571 109.528 65.8571 104.628C70.9571 100.928 73.7571 95.0285 73.5571 88.7285C73.2571 80.4285 77.6571 72.7285 85.0571 68.8285C92.4571 64.9285 101.357 65.4285 108.157 70.3285C113.257 73.9285 119.857 74.8285 125.757 72.7285C133.657 69.9285 142.357 71.7285 148.357 77.5285C154.457 83.3285 156.657 91.8285 154.157 99.8285C152.257 105.828 153.457 112.328 157.357 117.228C162.557 123.828 163.457 132.528 159.857 140.028C156.257 147.528 148.757 152.228 140.357 152.328C134.057 152.328 128.157 155.528 124.657 160.628C120.057 167.528 111.957 171.128 103.557 169.928Z" fill="#CCF000"/>
<path d="M66.9574 167.129L58.2574 230.629C56.7574 241.329 61.0574 251.929 69.5574 258.529L119.957 297.829C128.457 304.429 139.757 305.929 149.657 301.929L208.757 277.629C218.657 273.529 225.657 264.529 227.157 253.829L235.857 190.329C237.357 179.629 233.057 169.029 224.557 162.429L174.157 123.129C165.657 116.529 154.357 115.029 144.457 119.029L85.3574 143.329C75.4574 147.429 68.4574 156.429 66.9574 167.129Z" fill="#E55CFF"/>
<path d="M81.4578 144.728C84.6578 147.328 87.0578 150.828 88.3578 154.828C90.7578 161.928 96.5578 166.728 103.858 167.728C111.258 168.728 118.158 165.628 122.258 159.528C126.358 153.528 133.058 149.928 140.258 149.828C147.658 149.728 154.058 145.728 157.358 139.028C160.558 132.328 159.758 124.828 155.258 118.928C154.758 118.228 154.258 117.528 153.758 116.728C154.858 116.628 156.058 116.628 157.158 116.728C157.258 116.928 157.358 117.028 157.458 117.228C162.658 123.828 163.558 132.728 159.858 140.228C156.158 147.828 148.658 152.528 140.258 152.628C133.958 152.728 128.058 155.828 124.558 161.028C119.858 168.028 111.758 171.628 103.358 170.528C95.0578 169.428 88.1578 163.728 85.5578 155.728C84.2578 151.928 81.8578 148.728 78.7578 146.328C79.7578 145.728 80.5578 145.228 81.4578 144.728Z" fill="#FFA600"/>
<path d="M376.73 136.83C368.194 147.763 363.207 160.423 363.495 170.877C364.07 189.867 345.944 212.117 330.023 218.639C319.857 223.147 313.047 217.584 302.689 222.667C292.619 226.12 283.124 238.204 273.246 241.753C265.765 244.822 259.147 244.438 254.927 240.794C250.324 236.67 249.269 228.901 251.954 219.215C255.407 206.938 253.201 196.484 246.104 191.21L246.008 191.114C230.471 177.399 251.379 142.968 270.081 133.377C280.63 127.527 290.605 116.977 296.551 105.084C304.991 89.1638 320.24 73.8185 337.408 75.2572C338.463 75.449 339.518 75.7367 340.477 76.2162C340.381 76.1203 340.189 76.0244 340.093 76.0244C342.875 77.1753 344.984 79.3812 346.231 82.6421C349.876 91.6574 358.987 95.4937 370.016 92.6164C377.497 90.6983 383.06 92.2328 386.129 96.9323C391.212 104.509 389.486 120.621 376.73 136.83ZM185.682 186.702L245.528 233.409C245.528 233.121 245.432 232.833 245.432 232.546C245.432 232.738 245.528 232.929 245.528 233.121C244.857 228.613 245.241 223.53 246.775 217.872C249.844 206.363 247.83 198.786 241.117 194.183C241.692 194.662 242.171 195.142 242.843 195.621C242.555 195.429 242.267 195.238 241.98 194.95L183.188 149.106C183.956 153.71 183.572 158.985 182.037 164.739C179.352 174.713 180.599 182.77 185.682 186.702ZM226.73 50.513C220.784 62.4055 210.81 72.9554 200.26 78.8057C181.558 88.3006 160.65 122.827 176.187 136.542L235.65 182.961C233.252 162.341 248.501 139.515 267.491 128.582C272.478 125.8 277.466 121.676 281.494 117.361C285.522 112.949 288.974 107.962 291.756 102.687C300.579 85.9029 314.39 72.6677 331.557 69.7904C331.941 69.7904 332.325 69.6945 332.612 69.5986L272.67 22.8916C256.654 13.3008 234.211 35.0719 226.73 50.513ZM351.41 80.5321C354 87.0538 360.426 89.4515 368.77 87.3415C370.304 86.9579 372.51 86.5743 373.757 86.4784L313.815 39.6754C310.65 37.2777 306.142 36.6064 300.771 37.9491C300.867 38.045 346.039 73.1472 346.039 73.2431C348.341 75.0653 350.163 77.5589 351.41 80.5321Z" fill="#FFA600"/>
<path d="M390.829 93.9592C389.87 92.4247 388.623 91.1779 387.28 90.1229C387.376 89.9311 317.267 35.4555 317.172 35.3596C313.911 32.866 308.156 30.3724 298.853 32.7701C297.51 33.1538 296.264 33.3456 295.017 33.4415L276.027 18.5758C257.037 6.01189 230.951 29.1256 221.839 48.1154C216.373 59.0488 207.261 68.7355 197.575 74.1063C176.955 84.6562 152.498 123.499 172.831 140.954L173.214 141.338C178.105 145.27 179.448 153.422 176.763 163.3C173.31 175.577 175.324 185.647 182.229 191.018L252.146 245.589C252.338 245.781 252.626 245.877 252.818 245.973C264.806 254.125 280.343 246.165 290.701 236.766C298.086 230.244 307.677 224.49 316.788 225.832C321.487 226.599 326.571 225.832 331.941 223.722C349.876 216.433 369.441 192.265 368.77 170.781C368.482 161.574 372.99 150.161 380.758 140.187C393.898 123.882 397.926 104.893 390.829 93.9592ZM313.911 39.6755L373.853 86.4784C372.606 86.5743 370.4 86.9579 368.866 87.3416C360.426 89.5475 354.096 87.0539 351.506 80.5321C350.26 77.4631 348.437 75.0654 346.136 73.2432C346.136 73.1472 300.963 38.045 300.867 37.9491C306.238 36.6064 310.746 37.2778 313.911 39.6755ZM176.187 136.542C160.65 122.827 181.462 88.3007 200.26 78.8058C210.81 72.9554 220.784 62.4056 226.731 50.513C234.211 34.976 256.654 13.205 272.766 22.7957L332.709 69.5987C332.325 69.5987 331.941 69.6946 331.654 69.7905C314.486 72.6677 300.675 85.903 291.852 102.687C289.071 107.962 285.714 113.045 281.59 117.361C277.562 121.772 272.574 125.896 267.587 128.582C248.502 139.515 233.348 162.245 235.746 182.961L176.187 136.542ZM185.682 186.702C180.599 182.77 179.352 174.713 182.134 164.739C183.764 158.985 184.052 153.71 183.284 149.106L242.076 194.95C242.364 195.142 242.651 195.429 242.939 195.621C242.364 195.142 241.788 194.662 241.213 194.183C247.926 198.786 249.94 206.363 246.871 217.872C245.337 223.435 244.953 228.614 245.624 233.121C245.624 232.929 245.529 232.738 245.529 232.546C245.529 232.833 245.624 233.121 245.624 233.409L185.682 186.702ZM363.591 170.877C364.166 189.867 346.04 212.117 330.119 218.639C319.953 223.147 313.143 217.584 302.785 222.667C292.715 226.12 283.22 238.204 273.342 241.753C265.861 244.822 259.243 244.438 255.023 240.794C250.42 236.67 249.365 228.901 252.05 219.215C255.503 206.938 253.297 196.484 246.2 191.21L246.104 191.114C230.567 177.399 251.475 142.968 270.177 133.377C280.727 127.527 290.701 116.977 296.647 105.084C305.087 89.1638 320.336 73.8186 337.504 75.2572C338.559 75.449 339.614 75.7368 340.573 76.2163C340.477 76.1204 340.285 76.0245 340.189 76.0245C342.971 77.1754 345.081 79.3812 346.327 82.6421C349.972 91.6574 359.083 95.4937 370.113 92.6165C377.593 90.6983 383.156 92.2329 386.225 96.9323C391.116 104.509 389.486 120.622 376.73 136.734C368.194 147.667 363.207 160.423 363.591 170.877Z" fill="white"/>
</g>
</svg>
