<svg width="430" height="405" viewBox="0 0 430 405" fill="none" xmlns="http://www.w3.org/2000/svg">
<mask id="mask0" mask-type="alpha" maskUnits="userSpaceOnUse" x="0" y="0" width="430" height="405">
<rect width="430" height="405" fill="#C4C4C4"/>
</mask>
<g mask="url(#mask0)">
<path d="M15.9278 62.6387H415.002C423.782 62.6387 430.965 67.1387 430.965 72.6387V381.639C430.965 387.139 423.782 391.639 415.002 391.639H15.9278C7.14818 391.639 -0.0351562 387.139 -0.0351562 381.639V72.6387C-0.0351562 67.1387 7.14818 62.6387 15.9278 62.6387Z" fill="white"/>
<path d="M166.922 165.945C163.792 189.123 169.459 207.564 182.825 217.799L255.657 273.714L255.742 273.798C268.938 283.865 287.886 284.711 309.203 276.082C352.26 258.572 392.355 206.633 398.615 160.278C400.476 146.743 399.292 134.816 395.316 125.173C392.525 118.405 388.38 112.738 382.881 108.424L382.797 108.339L309.795 52.4248C296.599 42.2739 277.651 41.5126 256.334 50.1408C213.277 67.7357 173.181 119.674 166.922 165.945ZM379.413 112.992C391.002 121.958 395.908 138.538 393.032 159.601C387.026 204.096 348.453 254.089 307.088 270.922C287.632 278.789 270.63 278.282 259.041 269.315C254.304 265.678 250.751 260.771 248.298 254.935C244.745 246.222 243.645 235.31 245.337 222.79C251.343 178.296 289.916 128.303 331.281 111.469C350.821 103.518 367.909 104.025 379.413 112.992ZM306.411 56.9081L363.341 100.641C353.275 99.3726 341.686 101.149 329.335 106.224C286.279 123.735 246.183 175.673 239.923 222.029C238.062 235.563 239.246 247.491 243.222 257.134L186.293 213.401C174.619 204.434 169.713 187.854 172.589 166.707C178.595 122.212 217.168 72.219 258.533 55.3854C277.82 47.5185 294.822 48.0261 306.411 56.9081Z" fill="#006BFF"/>
<path d="M43.0812 228.458C62.6216 247.998 99.5877 245.038 137.738 224.313C175.888 245.038 212.854 247.998 232.395 228.458C251.935 208.917 248.975 171.951 228.25 133.801C248.975 95.6506 251.935 58.6845 232.395 39.1441C212.854 19.6037 175.888 22.5643 137.738 43.289C99.5877 22.5643 62.6216 19.6037 43.0812 39.1441C23.6253 58.7691 26.586 95.7352 47.2261 133.886C26.586 172.036 23.6253 209.002 43.0812 228.458Z" fill="#8247F5"/>
<mask id="mask1" mask-type="alpha" maskUnits="userSpaceOnUse" x="30" y="26" width="216" height="216">
<path d="M43.0812 228.458C62.6216 247.998 99.5877 245.038 137.738 224.313C175.888 245.038 212.854 247.998 232.395 228.458C251.935 208.917 248.975 171.951 228.25 133.801C248.975 95.6506 251.935 58.6845 232.395 39.1441C212.854 19.6037 175.888 22.5643 137.738 43.289C99.5877 22.5643 62.6216 19.6037 43.0812 39.1441C23.6253 58.7691 26.586 95.7352 47.2261 133.886C26.586 172.036 23.6253 209.002 43.0812 228.458Z" fill="#BFB0FF"/>
</mask>
<g mask="url(#mask1)">
<path d="M35.7243 143.106C35.3859 143.021 34.963 143.106 34.7092 143.444L34.4554 143.782C34.2016 144.036 34.1171 144.459 34.2016 144.798L34.2862 145.22C34.2862 145.305 34.2862 145.305 34.3708 145.39C34.3708 145.474 34.4554 145.559 34.4554 145.559C34.54 145.643 34.6246 145.728 34.7092 145.813C34.7938 145.813 34.7938 145.897 34.8784 145.897C34.963 145.897 34.963 145.897 35.0475 145.982L35.4705 146.066C35.8089 146.151 36.2318 146.066 36.4856 145.728L36.7394 145.39C36.9931 145.136 37.0777 144.713 36.9931 144.375L36.9085 143.952C36.824 143.613 36.4856 143.275 36.1472 143.19L35.7243 143.106Z" fill="#0AE8F0"/>
<path d="M43.8434 134.732C43.5051 134.648 43.0821 134.732 42.8283 135.071L42.5746 135.409C42.3208 135.663 42.2362 136.086 42.3208 136.424L42.4054 136.847C42.4054 136.932 42.4054 136.932 42.49 137.016C42.49 137.101 42.5746 137.185 42.5746 137.185C42.6591 137.27 42.7437 137.354 42.8283 137.439C42.9129 137.439 42.9129 137.524 42.9975 137.524C43.0821 137.524 43.0821 137.524 43.1667 137.608L43.5896 137.693C43.928 137.777 44.351 137.693 44.6047 137.354L44.8585 137.016C45.1123 136.762 45.1969 136.339 45.1123 136.001L45.0277 135.578C44.9431 135.24 44.6047 134.901 44.2664 134.817L43.8434 134.732Z" fill="#0AE8F0"/>
<path d="M35.8074 126.696L35.3844 126.611C35.0461 126.526 34.6231 126.611 34.3693 126.949L34.1156 127.288C33.8618 127.542 33.7772 127.965 33.8618 128.303L33.9464 128.726C33.9464 128.81 33.9464 128.81 34.031 128.895C34.031 128.98 34.1156 129.064 34.1156 129.064C34.2002 129.149 34.2848 129.233 34.3693 129.318C34.4539 129.318 34.4539 129.403 34.5385 129.403C34.6231 129.403 34.6231 129.403 34.7077 129.487L35.1307 129.572C35.469 129.656 35.892 129.572 36.1457 129.233L36.3995 128.895C36.6533 128.641 36.7379 128.218 36.6533 127.88L36.5687 127.457C36.4841 127.034 36.1457 126.78 35.8074 126.696Z" fill="#0AE8F0"/>
<path d="M35.976 134.985L35.553 134.901C35.2146 134.816 34.7917 134.901 34.5379 135.239L34.3687 135.408L34.1996 135.577C33.9458 135.831 33.8612 136.254 33.9458 136.592L34.0304 137.015C34.0304 137.1 34.0304 137.1 34.115 137.185C34.115 137.269 34.1996 137.354 34.1996 137.354C34.1996 137.438 34.2841 137.438 34.2841 137.523C34.3687 137.608 34.3687 137.608 34.4533 137.608C34.5379 137.608 34.5379 137.692 34.6225 137.692C34.7071 137.692 34.7071 137.692 34.7917 137.777L35.2146 137.861C35.553 137.946 35.976 137.861 36.2297 137.608L36.3989 137.438L36.5681 137.269C36.8219 137.015 36.9065 136.592 36.8219 136.254L36.7373 135.831C36.6527 135.662 36.5681 135.493 36.4835 135.324C36.3143 135.07 36.1451 134.985 35.976 134.985Z" fill="#0AE8F0"/>
<path d="M51.9645 126.273C51.6261 126.189 51.2032 126.273 50.9494 126.612L50.6956 126.95C50.4419 127.204 50.3573 127.627 50.4419 127.965L50.5265 128.388C50.5265 128.473 50.5265 128.473 50.6111 128.557C50.6111 128.642 50.6956 128.726 50.6956 128.726C50.7802 128.811 50.8648 128.895 50.9494 128.98C51.034 128.98 51.034 129.065 51.1186 129.065C51.2032 129.065 51.2032 129.065 51.2878 129.149L51.7107 129.234C52.0491 129.318 52.472 129.234 52.7258 128.895L52.9796 128.557C53.2334 128.303 53.318 127.88 53.2334 127.542L53.1488 127.119C53.0642 126.781 52.7258 126.442 52.3875 126.358L51.9645 126.273Z" fill="#0AE8F0"/>
<path d="M36.1456 118.66C35.9764 118.491 35.8072 118.406 35.6381 118.406L35.2151 118.322C34.8768 118.237 34.4538 118.322 34.2 118.66L34.0308 118.829L33.8617 118.998C33.6079 119.252 33.5233 119.675 33.6079 120.013L33.6925 120.436C33.6925 120.521 33.6925 120.521 33.7771 120.605C33.7771 120.69 33.8617 120.775 33.8617 120.775C33.8617 120.859 33.9463 120.859 33.9463 120.944C34.0308 121.028 34.0308 121.028 34.1154 121.028C34.2 121.028 34.2 121.113 34.2846 121.113C34.3692 121.113 34.3692 121.113 34.4538 121.198L34.8768 121.282C35.2151 121.367 35.6381 121.282 35.8918 120.944L36.061 120.775L36.2302 120.605C36.484 120.352 36.5686 119.929 36.484 119.59L36.3994 119.167C36.3994 118.914 36.3148 118.744 36.1456 118.66Z" fill="#0AE8F0"/>
<path d="M43.9285 118.237L43.5055 118.152C43.1672 118.068 42.7442 118.152 42.4904 118.49L42.2367 118.829C41.9829 119.083 41.8983 119.506 41.9829 119.844L42.0675 120.267C42.0675 120.351 42.0675 120.351 42.1521 120.436C42.1521 120.521 42.2367 120.605 42.2367 120.605C42.3213 120.69 42.4058 120.774 42.4904 120.859C42.575 120.859 42.575 120.944 42.6596 120.944C42.7442 120.944 42.7442 120.944 42.8288 121.028L43.2518 121.113C43.5901 121.197 44.0131 121.113 44.2668 120.859L44.5206 120.521C44.7744 120.267 44.859 119.844 44.7744 119.506L44.6898 119.083C44.6052 118.575 44.3514 118.321 43.9285 118.237Z" fill="#0AE8F0"/>
<path d="M44.0971 126.526L43.6741 126.442C43.3357 126.357 42.9128 126.442 42.659 126.78L42.4898 126.949L42.3206 127.118C42.0669 127.372 41.9823 127.795 42.0669 128.133L42.1515 128.556C42.1515 128.641 42.1515 128.641 42.2361 128.726C42.2361 128.81 42.3206 128.895 42.3206 128.895C42.3206 128.979 42.4052 128.979 42.4052 129.064C42.4898 129.149 42.4898 129.149 42.5744 129.149C42.659 129.149 42.659 129.233 42.7436 129.233C42.8282 129.233 42.8282 129.233 42.9128 129.318L43.3357 129.402C43.6741 129.487 44.0971 129.402 44.3508 129.064L44.52 128.895L44.6892 128.726C44.943 128.472 45.0276 128.049 44.943 127.711L44.8584 127.288C44.7738 127.118 44.6892 126.949 44.6046 126.78C44.4354 126.695 44.2662 126.526 44.0971 126.526Z" fill="#0AE8F0"/>
<path d="M33.9481 104.364C34.0327 104.364 34.0327 104.448 34.1173 104.448C34.2018 104.448 34.2018 104.448 34.2864 104.533L34.7094 104.617C35.0478 104.702 35.4707 104.617 35.7245 104.279L35.8937 104.11L36.0628 103.941C36.3166 103.687 36.4012 103.264 36.3166 102.926L36.1474 102.503C36.0628 102.333 35.9782 102.164 35.8937 101.995C35.7245 101.826 35.5553 101.741 35.3861 101.741L34.9632 101.657C34.6248 101.572 34.2018 101.657 33.9481 101.91L33.7789 102.08L33.6097 102.249C33.3559 102.503 33.2713 102.926 33.3559 103.264L33.4405 103.687C33.4405 103.771 33.4405 103.771 33.5251 103.856C33.5251 103.941 33.6097 104.025 33.6097 104.025C33.6097 104.11 33.6943 104.11 33.6943 104.194C33.8635 104.279 33.8635 104.279 33.9481 104.364Z" fill="#0AE8F0"/>
<path d="M35.5535 110.116L35.1305 110.031C34.7922 109.947 34.3692 110.031 34.1154 110.37L33.8617 110.708C33.6079 110.962 33.5233 111.385 33.6079 111.723L33.6925 112.146C33.6925 112.231 33.6925 112.231 33.7771 112.315C33.7771 112.4 33.8617 112.485 33.8617 112.485C33.9463 112.569 34.0308 112.654 34.1154 112.738C34.2 112.738 34.2 112.823 34.2846 112.823C34.3692 112.823 34.3692 112.823 34.4538 112.908L34.8768 112.992C35.2151 113.077 35.6381 112.992 35.8918 112.738L36.1456 112.4C36.3994 112.146 36.484 111.723 36.3994 111.385L36.3148 110.962C36.2302 110.454 35.8918 110.201 35.5535 110.116Z" fill="#0AE8F0"/>
<path d="M60.1696 117.813C59.8312 117.729 59.4083 117.813 59.1545 118.152L58.9007 118.49C58.647 118.744 58.5624 119.167 58.647 119.505L58.7315 119.928C58.7315 120.013 58.7315 120.013 58.8161 120.097C58.8161 120.182 58.9007 120.266 58.9007 120.266C58.9853 120.351 59.0699 120.436 59.1545 120.52C59.2391 120.52 59.2391 120.605 59.3237 120.605C59.4083 120.605 59.4083 120.605 59.4929 120.689L59.9158 120.774C60.2542 120.858 60.6771 120.774 60.9309 120.436L61.1847 120.097C61.4384 119.843 61.523 119.42 61.4384 119.082L61.3539 118.659C61.2693 118.321 60.9309 117.982 60.5925 117.898L60.1696 117.813Z" fill="#0AE8F0"/>
<path d="M44.2667 110.2C44.0975 110.031 43.9283 109.947 43.7592 109.947L43.3362 109.862C42.9978 109.777 42.5749 109.862 42.3211 110.2L42.1519 110.37L41.9828 110.539C41.729 110.793 41.6444 111.216 41.729 111.554L41.8136 111.977C41.8136 112.061 41.8136 112.061 41.8982 112.146C41.8982 112.231 41.9828 112.315 41.9828 112.315C41.9828 112.4 42.0674 112.4 42.0674 112.484C42.1519 112.569 42.1519 112.569 42.2365 112.569C42.3211 112.569 42.3211 112.654 42.4057 112.654C42.4903 112.654 42.4903 112.654 42.5749 112.738L42.9978 112.823C43.3362 112.907 43.7592 112.823 44.0129 112.569L44.1821 112.4L44.3513 112.231C44.6051 111.977 44.6897 111.554 44.6051 111.216L44.5205 110.793C44.5205 110.539 44.4359 110.37 44.2667 110.2Z" fill="#0AE8F0"/>
<path d="M52.1355 109.777L51.7126 109.693C51.3742 109.608 50.9512 109.693 50.6975 109.947L50.4437 110.285C50.1899 110.539 50.1053 110.962 50.1899 111.3L50.2745 111.723C50.2745 111.808 50.2745 111.808 50.3591 111.892C50.3591 111.977 50.4437 112.061 50.4437 112.061C50.5283 112.146 50.6129 112.231 50.6975 112.315C50.7821 112.315 50.7821 112.4 50.8667 112.4C50.9512 112.4 50.9512 112.4 51.0358 112.484L51.4588 112.569C51.7971 112.654 52.2201 112.569 52.4739 112.315L52.7276 111.977C52.9814 111.723 53.066 111.3 52.9814 110.962L52.8968 110.539C52.8122 110.2 52.4739 109.862 52.1355 109.777Z" fill="#0AE8F0"/>
<path d="M52.2201 118.067L51.7971 117.983C51.4588 117.898 51.0358 117.983 50.7821 118.237L50.6129 118.406L50.4437 118.575C50.1899 118.829 50.1053 119.252 50.1899 119.59L50.2745 120.013C50.2745 120.098 50.2745 120.098 50.3591 120.182C50.3591 120.267 50.4437 120.351 50.4437 120.351C50.4437 120.436 50.5283 120.436 50.5283 120.521C50.6129 120.605 50.6129 120.605 50.6975 120.605C50.7821 120.605 50.7821 120.69 50.8667 120.69C50.9512 120.69 50.9512 120.69 51.0358 120.774L51.4588 120.859C51.7971 120.944 52.2201 120.859 52.4739 120.605L52.6431 120.436L52.8122 120.267C53.066 120.013 53.1506 119.59 53.066 119.252L52.9814 118.829C52.8968 118.66 52.8122 118.49 52.7276 118.321C52.6431 118.237 52.4739 118.152 52.2201 118.067Z" fill="#0AE8F0"/>
<path d="M42.0666 95.9048C42.1512 95.9048 42.1512 95.9894 42.2358 95.9894C42.3204 95.9894 42.3204 95.9894 42.405 96.074L42.8279 96.1585C43.1663 96.2431 43.5892 96.1585 43.843 95.9048L44.0122 95.7356L44.1814 95.5664C44.4351 95.3126 44.5197 94.8897 44.4351 94.5513L44.3506 94.1284C44.266 93.9592 44.1814 93.79 44.0968 93.6208C43.9276 93.4516 43.7584 93.3671 43.5892 93.3671L43.1663 93.2825C42.8279 93.1979 42.405 93.2825 42.1512 93.6208L41.982 93.79L41.8128 93.9592C41.5591 94.213 41.4745 94.6359 41.5591 94.9743L41.6437 95.3972C41.6437 95.4818 41.6437 95.4818 41.7282 95.5664C41.7282 95.651 41.8128 95.7356 41.8128 95.7356C41.8128 95.8202 41.8974 95.8202 41.8974 95.9048C41.982 95.8202 42.0666 95.8202 42.0666 95.9048Z" fill="#0AE8F0"/>
<path d="M43.6746 101.656L43.2516 101.572C42.9133 101.487 42.4903 101.572 42.2365 101.826L41.9828 102.164C41.729 102.418 41.6444 102.841 41.729 103.179L41.8136 103.602C41.8136 103.687 41.8136 103.687 41.8982 103.771C41.8982 103.856 41.9828 103.94 41.9828 103.94C42.0674 104.025 42.1519 104.109 42.2365 104.194C42.3211 104.194 42.3211 104.279 42.4057 104.279C42.4903 104.279 42.4903 104.279 42.5749 104.363L42.9978 104.448C43.3362 104.532 43.7592 104.448 44.0129 104.194L44.2667 103.856C44.5205 103.602 44.6051 103.179 44.5205 102.841L44.4359 102.418C44.3513 101.995 44.0129 101.741 43.6746 101.656Z" fill="#0AE8F0"/>
<path d="M33.6942 87.7839C33.7788 87.7839 33.7788 87.8685 33.8633 87.8685C33.9479 87.8685 33.9479 87.8685 34.0325 87.9531L34.4555 88.0377C34.7938 88.1223 35.2168 88.0377 35.4706 87.7839L35.6398 87.6147L35.8089 87.4455C36.0627 87.1918 36.1473 86.7688 36.0627 86.4305L35.9781 86.0075C35.8935 85.8383 35.8089 85.6691 35.7243 85.5C35.5552 85.3308 35.386 85.2462 35.2168 85.2462L34.7938 85.1616C34.4555 85.077 34.0325 85.1616 33.7788 85.4154L33.525 85.5846L33.3558 85.7537C33.102 86.0075 33.0174 86.4305 33.102 86.7688L33.1866 87.1918C33.1866 87.2764 33.1866 87.2764 33.2712 87.361C33.2712 87.4455 33.3558 87.5301 33.3558 87.5301C33.3558 87.6147 33.4404 87.6147 33.4404 87.6993C33.4404 87.7839 33.6096 87.6993 33.6942 87.7839Z" fill="#0AE8F0"/>
<path d="M34.0327 96.1584C34.1173 96.1584 34.1173 96.1584 34.2018 96.243L34.6248 96.3276C34.9632 96.4122 35.3861 96.3276 35.6399 96.0738L35.8937 95.7355C36.1474 95.4817 36.232 95.0588 36.1474 94.7204L36.0628 94.2974C35.9782 93.9591 35.6399 93.6207 35.3015 93.5361L34.8786 93.3669C34.5402 93.2823 34.1173 93.3669 33.8635 93.7053L33.6097 94.0437C33.3559 94.2974 33.2713 94.7204 33.3559 95.0587L33.4405 95.4817C33.4405 95.5663 33.4405 95.5663 33.5251 95.6509C33.5251 95.7355 33.6097 95.8201 33.6097 95.8201C33.6943 95.9047 33.7789 95.9892 33.8635 96.0738C33.8635 96.0738 33.9481 96.0738 34.0327 96.1584Z" fill="#0AE8F0"/>
<path d="M68.2926 109.439C67.9543 109.354 67.5313 109.439 67.2775 109.693L67.0238 110.031C66.77 110.285 66.6854 110.708 66.77 111.046L66.8546 111.469C66.8546 111.554 66.8546 111.554 66.9392 111.638C66.9392 111.723 67.0238 111.807 67.0238 111.807C67.1084 111.892 67.193 111.977 67.2775 112.061C67.3621 112.061 67.3621 112.146 67.4467 112.146C67.5313 112.146 67.5313 112.146 67.6159 112.23L68.0389 112.315C68.3772 112.4 68.8002 112.315 69.0539 112.061L69.3077 111.723C69.5615 111.469 69.6461 111.046 69.5615 110.708L69.4769 110.285C69.3923 109.946 69.0539 109.608 68.7156 109.524L68.2926 109.439Z" fill="#0AE8F0"/>
<path d="M52.4737 101.742C52.3046 101.572 52.1354 101.488 51.9662 101.488L51.5432 101.403C51.2049 101.319 50.7819 101.403 50.5282 101.657L50.359 101.826L50.1898 101.995C49.936 102.249 49.8514 102.672 49.936 103.011L50.0206 103.433C50.0206 103.518 50.0206 103.518 50.1052 103.603C50.1052 103.687 50.1898 103.772 50.1898 103.772C50.1898 103.856 50.2744 103.856 50.2744 103.941C50.2744 104.026 50.359 104.026 50.4436 104.026C50.5282 104.026 50.5282 104.11 50.6127 104.11C50.6973 104.11 50.6973 104.11 50.7819 104.195L51.2049 104.279C51.5432 104.364 51.9662 104.279 52.22 104.026L52.3891 103.856L52.5583 103.687C52.8121 103.433 52.8967 103.011 52.8121 102.672L52.7275 102.249C52.7275 102.08 52.5583 101.911 52.4737 101.742Z" fill="#0AE8F0"/>
<path d="M60.2546 101.403L59.8317 101.318C59.4933 101.234 59.0704 101.318 58.8166 101.572L58.5628 101.91C58.3091 102.164 58.2245 102.587 58.3091 102.926L58.3937 103.349C58.3937 103.433 58.3937 103.433 58.4782 103.518C58.4782 103.602 58.5628 103.687 58.5628 103.687C58.6474 103.771 58.732 103.856 58.8166 103.941C58.9012 103.941 58.9012 104.025 58.9858 104.025C59.0704 104.025 59.0704 104.025 59.155 104.11L59.5779 104.194C59.9163 104.279 60.3392 104.194 60.593 103.856L60.8468 103.518C61.1006 103.264 61.1851 102.841 61.1006 102.503L61.016 102.08C60.9314 101.741 60.593 101.488 60.2546 101.403Z" fill="#0AE8F0"/>
<path d="M60.4232 109.693L60.0003 109.608C59.6619 109.524 59.239 109.608 58.9852 109.947L58.816 110.116L58.6468 110.285C58.393 110.539 58.3085 110.962 58.393 111.3L58.4776 111.723C58.4776 111.808 58.4776 111.808 58.5622 111.892C58.5622 111.977 58.6468 112.061 58.6468 112.061C58.6468 112.146 58.7314 112.146 58.7314 112.23C58.816 112.315 58.816 112.315 58.9006 112.315C58.9852 112.315 58.9852 112.4 59.0698 112.4C59.1544 112.4 59.1544 112.4 59.239 112.484L59.6619 112.569C60.0003 112.653 60.4232 112.569 60.677 112.315L60.8462 112.146L61.0154 111.977C61.2691 111.723 61.3537 111.3 61.2691 110.962L61.1845 110.539C61.0999 110.369 61.0154 110.2 60.9308 110.031C60.7616 109.777 60.5924 109.693 60.4232 109.693Z" fill="#0AE8F0"/>
<path d="M50.2723 87.4452C50.3569 87.4452 50.3569 87.5298 50.4415 87.5298C50.5261 87.5298 50.5261 87.5298 50.6107 87.6143L51.0336 87.6989C51.372 87.7835 51.7949 87.6989 52.0487 87.3606L52.2179 87.1914L52.3871 87.0222C52.6408 86.7684 52.7254 86.3455 52.6408 86.0071L52.5562 85.5842C52.4717 85.415 52.3871 85.2458 52.3025 85.0766C52.1333 84.9074 51.9641 84.8229 51.7949 84.8229L51.372 84.7383C51.0336 84.6537 50.6107 84.7383 50.3569 84.992L50.1031 85.2458L49.9339 85.415C49.6802 85.6688 49.5956 86.0917 49.6802 86.4301L49.7647 86.853C49.7647 86.9376 49.7648 86.9376 49.8493 87.0222C49.8493 87.1068 49.9339 87.1914 49.9339 87.1914C49.9339 87.276 50.0185 87.276 50.0185 87.3606C50.1031 87.3606 50.1877 87.4452 50.2723 87.4452Z" fill="#0AE8F0"/>
<path d="M51.7976 93.1981L51.3747 93.1135C51.0363 93.0289 50.6133 93.1135 50.3596 93.4519L50.1058 93.7056C49.852 93.9594 49.7674 94.3824 49.852 94.7207L49.9366 95.1437C49.9366 95.2283 49.9366 95.2283 50.0212 95.3129C50.0212 95.3975 50.1058 95.4821 50.1058 95.4821C50.1904 95.5666 50.275 95.6512 50.3596 95.7358C50.4442 95.7358 50.4442 95.8204 50.5288 95.8204C50.6133 95.8204 50.6133 95.8204 50.6979 95.905L51.1209 95.9896C51.4593 96.0742 51.8822 95.9896 52.136 95.7358L52.3898 95.3975C52.6435 95.1437 52.7281 94.7207 52.6435 94.3824V93.9594C52.4743 93.6211 52.2206 93.2827 51.7976 93.1981Z" fill="#0AE8F0"/>
<path d="M41.8133 79.3246C41.8979 79.3246 41.8979 79.4091 41.9825 79.4091C42.0671 79.4091 42.0671 79.4092 42.1517 79.4937L42.5746 79.5783C42.913 79.6629 43.3359 79.5783 43.5897 79.24L43.7589 79.0708L43.9281 78.9016C44.1818 78.6478 44.2664 78.2249 44.1818 77.8865L44.0973 77.4636C44.0127 77.2944 43.9281 77.1252 43.8435 76.956C43.6743 76.7868 43.5051 76.7022 43.3359 76.7022L42.913 76.6177C42.5746 76.5331 42.1517 76.6177 41.8979 76.8714L41.6441 77.1252L41.4749 77.2944C41.2212 77.5482 41.1366 77.9711 41.2212 78.3095L41.3058 78.7324C41.3058 78.817 41.3058 78.817 41.3904 78.9016C41.3904 78.9862 41.4749 79.0708 41.4749 79.0708C41.4749 79.1554 41.5595 79.1554 41.5595 79.24C41.7287 79.24 41.7287 79.24 41.8133 79.3246Z" fill="#0AE8F0"/>
<path d="M42.1524 87.6993C42.237 87.6993 42.237 87.6993 42.3216 87.7839L42.7445 87.8685C43.0829 87.9531 43.5059 87.8685 43.7596 87.6147L44.0134 87.2764C44.2672 87.0226 44.3518 86.5996 44.2672 86.2613L44.1826 85.8383C44.098 85.5 43.7596 85.1616 43.4213 85.077L42.9983 84.9924C42.66 84.9078 42.237 84.9924 41.9832 85.3308L41.6449 85.5846C41.3911 85.8383 41.3065 86.2613 41.3911 86.5996L41.4757 87.0226C41.4757 87.1072 41.4757 87.1072 41.5603 87.1918C41.5603 87.2764 41.6449 87.361 41.6449 87.361C41.7295 87.4455 41.814 87.5301 41.8986 87.6147C41.9832 87.6147 42.0678 87.6993 42.1524 87.6993Z" fill="#0AE8F0"/>
<path d="M35.8922 78.056L35.723 77.633C35.6384 77.2946 35.3 76.9563 34.9617 76.8717L34.5387 76.7871C34.2004 76.7025 33.7774 76.7871 33.5236 77.0409L33.2699 77.3792C33.0161 77.633 32.9315 78.056 33.0161 78.3943L33.1007 78.8173C33.1007 78.9019 33.1007 78.9019 33.1853 78.9864C33.1853 79.071 33.2699 79.1556 33.2699 79.1556C33.3545 79.2402 33.439 79.3248 33.5236 79.4094C33.6082 79.4094 33.6082 79.494 33.6928 79.494C33.7774 79.494 33.7774 79.494 33.862 79.5786L34.285 79.6632C34.6233 79.7478 35.0463 79.6632 35.3 79.4094L35.5538 79.071C35.8922 78.8173 35.9768 78.4789 35.8922 78.056Z" fill="#0AE8F0"/>
<path d="M76.4118 100.98C76.0734 100.895 75.6505 100.98 75.3967 101.234L75.1429 101.572C74.8891 101.826 74.8046 102.249 74.8891 102.587L74.9737 103.01C74.9737 103.095 74.9737 103.095 75.0583 103.179C75.0583 103.264 75.1429 103.349 75.1429 103.349C75.2275 103.433 75.3121 103.518 75.3967 103.602C75.4813 103.602 75.4813 103.687 75.5659 103.687C75.6505 103.687 75.6505 103.687 75.7351 103.771L76.158 103.856C76.4964 103.941 76.9193 103.856 77.1731 103.602L77.4269 103.264C77.6806 103.01 77.7652 102.587 77.6806 102.249L77.596 101.826C77.5115 101.488 77.1731 101.149 76.8347 101.065L76.4118 100.98Z" fill="#0AE8F0"/>
<path d="M60.5923 93.3664C60.4231 93.1972 60.2539 93.1127 60.0847 93.1127L59.6618 93.0281C59.3234 92.9435 58.9005 93.0281 58.6467 93.3664L58.5621 93.451L58.3929 93.6202C58.1391 93.874 58.0546 94.2969 58.1391 94.6353L58.2237 95.0582C58.2237 95.1428 58.2237 95.1428 58.3083 95.2274C58.3083 95.312 58.3929 95.3966 58.3929 95.3966C58.3929 95.4812 58.4775 95.4812 58.4775 95.5658C58.5621 95.6504 58.5621 95.6504 58.6467 95.6504C58.7313 95.6504 58.7313 95.735 58.8159 95.735C58.9005 95.735 58.9005 95.735 58.985 95.8196L59.408 95.9041C59.7464 95.9887 60.1693 95.9041 60.4231 95.6504L60.5923 95.4812L60.7615 95.312C61.0152 95.0582 61.0998 94.6353 61.0152 94.2969L60.9306 93.874C60.846 93.6202 60.7615 93.451 60.5923 93.3664Z" fill="#0AE8F0"/>
<path d="M68.3738 92.9439L67.9508 92.8594C67.6125 92.7748 67.1895 92.8594 66.9358 93.1131L66.682 93.4515C66.4282 93.7053 66.3436 94.1282 66.4282 94.4666L66.5128 94.8895C66.5128 94.9741 66.5128 94.9741 66.5974 95.0587C66.5974 95.1433 66.682 95.2279 66.682 95.2279C66.7666 95.3125 66.8512 95.3971 66.9358 95.4817C67.0203 95.4817 67.0203 95.5663 67.1049 95.5663C67.1895 95.5663 67.1895 95.5663 67.2741 95.6509L67.6971 95.7354C68.0354 95.82 68.4584 95.7354 68.7122 95.4817L68.9659 95.1433C69.2197 94.8895 69.3043 94.4666 69.2197 94.1282L69.1351 93.7053C69.0505 93.2823 68.7967 93.0285 68.3738 92.9439Z" fill="#0AE8F0"/>
<path d="M68.5424 101.234L68.1194 101.149C67.7811 101.065 67.3581 101.149 67.1043 101.403L66.9351 101.572L66.766 101.742C66.5122 101.995 66.4276 102.418 66.5122 102.757L66.5968 103.18C66.5968 103.264 66.5968 103.264 66.6814 103.349C66.6814 103.433 66.766 103.518 66.766 103.518C66.766 103.603 66.8506 103.603 66.8506 103.687C66.8506 103.772 66.9351 103.772 67.0197 103.772C67.1043 103.772 67.1043 103.856 67.1889 103.856C67.2735 103.856 67.2735 103.856 67.3581 103.941L67.781 104.025C68.1194 104.11 68.5424 104.025 68.7961 103.772L68.9653 103.603L69.1345 103.433C69.3883 103.18 69.4729 102.757 69.3883 102.418L69.3037 101.995C69.2191 101.826 69.1345 101.657 69.0499 101.488C68.8807 101.403 68.7115 101.319 68.5424 101.234Z" fill="#0AE8F0"/>
<path d="M58.3953 79.0714C58.4799 79.0714 58.4799 79.156 58.5645 79.156C58.6491 79.156 58.6491 79.156 58.7337 79.2406L59.1567 79.3252C59.495 79.4098 59.918 79.3252 60.1717 79.0714L60.3409 78.9022L60.5101 78.733C60.7639 78.4793 60.8485 78.0563 60.7639 77.7179L60.6793 77.295C60.5947 77.1258 60.5101 76.9566 60.4255 76.7874C60.2563 76.6183 60.0872 76.5337 59.918 76.5337L59.4104 76.3645C59.0721 76.2799 58.6491 76.3645 58.3953 76.7029L58.2262 76.872L58.057 77.0412C57.8032 77.295 57.7186 77.7179 57.8032 78.0563L57.8878 78.4793C57.8878 78.5639 57.8878 78.5639 57.9724 78.6484C57.9724 78.733 58.057 78.8176 58.057 78.8176C58.057 78.9022 58.1416 78.9022 58.1416 78.9868C58.1416 79.0714 58.3107 78.9868 58.3953 79.0714Z" fill="#0AE8F0"/>
<path d="M60.0007 84.8229L59.5778 84.7383C59.2394 84.6537 58.8165 84.7383 58.5627 84.992L58.3089 85.3304C58.0552 85.5842 57.9706 86.0071 58.0552 86.3455L58.1397 86.7684C58.1397 86.853 58.1397 86.853 58.2243 86.9376C58.2243 87.0222 58.3089 87.1068 58.3089 87.1068C58.3935 87.1914 58.4781 87.276 58.5627 87.3606C58.6473 87.3606 58.6473 87.4452 58.7319 87.4452C58.8165 87.4452 58.8165 87.4452 58.9011 87.5298L59.324 87.6143C59.6624 87.6989 60.0853 87.6143 60.3391 87.3606L60.5929 87.0222C60.8466 86.7684 60.9312 86.3455 60.8466 86.0071L60.7621 85.5842C60.6775 85.1612 60.3391 84.9074 60.0007 84.8229Z" fill="#0AE8F0"/>
<path d="M49.9338 70.8659C50.0184 70.8659 50.0184 70.9505 50.103 70.9505C50.1876 70.9505 50.1876 70.9505 50.2722 71.0351L50.6951 71.1197C51.0335 71.2043 51.4564 71.1197 51.7102 70.8659L51.8794 70.6968L52.0486 70.5276C52.3023 70.2738 52.3869 69.8509 52.3023 69.5125L52.2177 69.0895C52.1332 68.9204 52.0486 68.7512 51.964 68.582C51.7948 68.4128 51.6256 68.3282 51.4564 68.3282L51.0335 68.2436C50.6951 68.159 50.2722 68.2436 50.0184 68.4974L49.8492 68.6666L49.68 68.8358C49.4263 69.0895 49.3417 69.5125 49.4263 69.8509L49.5108 70.2738C49.5108 70.3584 49.5108 70.3584 49.5954 70.443C49.5954 70.5276 49.68 70.6122 49.68 70.6122C49.68 70.6968 49.7646 70.6968 49.7646 70.7814C49.8492 70.7814 49.9338 70.8659 49.9338 70.8659Z" fill="#0AE8F0"/>
<path d="M50.2709 79.2398C50.3555 79.2398 50.3555 79.2398 50.4401 79.3244L50.8631 79.409C51.2014 79.4936 51.6244 79.409 51.8782 79.1553L52.1319 78.8169C52.3857 78.5631 52.4703 78.1402 52.3857 77.8018L52.3011 77.3789C52.2165 77.0405 51.8782 76.7021 51.5398 76.6175L51.1169 76.533C50.7785 76.4484 50.3555 76.5329 50.1018 76.8713L49.848 77.1251C49.5942 77.3789 49.5096 77.8018 49.5942 78.1402L49.6788 78.5631C49.6788 78.6477 49.6788 78.6477 49.7634 78.7323C49.7634 78.8169 49.848 78.9015 49.848 78.9015C49.9326 78.9861 50.0172 79.0707 50.1018 79.1553C50.1864 79.2399 50.2709 79.2398 50.2709 79.2398Z" fill="#0AE8F0"/>
<path d="M35.4685 70.866C35.7223 70.6122 35.8068 70.1892 35.7223 69.8509L35.6377 69.4279C35.5531 69.2587 35.4685 69.0896 35.3839 68.9204C35.2147 68.7512 35.0455 68.6666 34.8763 68.6666L34.4534 68.582C34.115 68.4974 33.6921 68.582 33.4383 68.8358L33.2691 69.005L33.0999 69.1741C32.8462 69.4279 32.7616 69.8509 32.8462 70.1892L32.9308 70.6122C32.9308 70.6968 32.9308 70.6968 33.0154 70.7814C33.0154 70.866 33.0999 70.9506 33.0999 70.9506C33.0999 71.0351 33.1845 71.0351 33.1845 71.1197C33.1845 71.2043 33.2691 71.2043 33.3537 71.2043C33.4383 71.2043 33.4383 71.2889 33.5229 71.2889C33.6075 71.2889 33.6075 71.2889 33.6921 71.3735L34.115 71.4581C34.4534 71.5427 34.8763 71.4581 35.1301 71.2043L35.2993 71.0351L35.4685 70.866Z" fill="#0AE8F0"/>
<path d="M44.0127 69.6817L43.9281 69.2587C43.8435 68.9204 43.5051 68.582 43.1668 68.4974L42.7438 68.4128C42.4054 68.3282 41.9825 68.4128 41.7287 68.7512L41.4749 69.0896C41.2212 69.3433 41.1366 69.7663 41.2212 70.1046L41.3058 70.5276C41.3058 70.6122 41.3058 70.6122 41.3904 70.6968C41.3904 70.7814 41.4749 70.866 41.4749 70.866C41.5595 70.9506 41.6441 71.0351 41.7287 71.1197C41.8133 71.1197 41.8133 71.2043 41.8979 71.2043C41.9825 71.2043 41.9825 71.2043 42.0671 71.2889L42.49 71.3735C42.8284 71.4581 43.2513 71.3735 43.5051 71.1197L43.7589 70.7814C44.0127 70.443 44.0973 70.0201 44.0127 69.6817Z" fill="#0AE8F0"/>
<path d="M33.269 54.709C33.3536 54.709 33.3536 54.709 33.4382 54.7935L33.8611 54.8781C34.1995 54.9627 34.6224 54.8781 34.8762 54.5398L35.0454 54.3706L35.2146 54.2014C35.4683 53.9476 35.5529 53.5247 35.4684 53.1863L35.3838 52.7634C35.2992 52.5942 35.2146 52.425 35.13 52.2558C34.9608 52.0866 34.7916 52.0021 34.6224 52.0021L34.1995 51.9175C33.8611 51.8329 33.4382 51.9175 33.1844 52.1712L33.0152 52.3404L32.846 52.5942C32.5923 52.848 32.5077 53.2709 32.5923 53.6093L32.6769 54.0322C32.6769 54.1168 32.6769 54.1168 32.7615 54.2014C32.7615 54.286 32.846 54.3706 32.846 54.3706C32.846 54.4552 32.9306 54.4552 32.9306 54.5398C33.0152 54.6244 33.0152 54.6244 33.0998 54.6244C33.1844 54.6244 33.269 54.709 33.269 54.709Z" fill="#0AE8F0"/>
<path d="M33.4389 62.9988C33.5235 62.9988 33.5235 62.9988 33.6081 63.0833L34.031 63.1679C34.3694 63.2525 34.7924 63.1679 35.0461 62.8296L35.2999 62.4912C35.5537 62.2374 35.6383 61.8145 35.5537 61.4761L35.4691 61.0532C35.3845 60.7148 35.0461 60.3764 34.7078 60.2919L34.2848 60.2073C33.9465 60.1227 33.5235 60.2073 33.2697 60.5456L33.016 60.884C32.7622 61.1378 32.6776 61.5607 32.7622 61.8991L32.8468 62.322C32.8468 62.4066 32.8468 62.4066 32.9314 62.4912C32.9314 62.5758 33.016 62.6604 33.016 62.6604C33.1006 62.745 33.1851 62.8296 33.2697 62.9142C33.2697 62.9142 33.3543 62.9988 33.4389 62.9988Z" fill="#0AE8F0"/>
<path d="M84.6155 92.521C84.2771 92.4364 83.8542 92.521 83.6004 92.7748L83.2621 93.1977C83.0083 93.4515 82.9237 93.8744 83.0083 94.2128L83.0929 94.6357C83.0929 94.7203 83.0929 94.7203 83.1775 94.8049C83.1775 94.8895 83.2621 94.9741 83.2621 94.9741C83.3466 95.0587 83.4312 95.1433 83.5158 95.2279C83.6004 95.2279 83.6004 95.3125 83.685 95.3125C83.7696 95.3125 83.7696 95.3125 83.8542 95.3971L84.2771 95.4817C84.6155 95.5662 85.0385 95.4817 85.2922 95.2279L85.6306 94.8895C85.8844 94.6357 85.969 94.2128 85.8844 93.8744L85.7998 93.4515C85.7152 93.1131 85.3768 92.7748 85.0385 92.6902L84.6155 92.521Z" fill="#0AE8F0"/>
<path d="M68.7134 84.9077C68.5442 84.7385 68.375 84.6539 68.2058 84.6539L67.8675 84.5693C67.5291 84.4847 67.1061 84.5693 66.8524 84.8231L66.6832 84.9923L66.514 85.1615C66.2602 85.4152 66.1756 85.8382 66.2602 86.1765L66.3448 86.5995C66.3448 86.6841 66.3448 86.6841 66.4294 86.7687C66.4294 86.8533 66.514 86.9379 66.514 86.9379C66.514 87.0224 66.5986 87.0224 66.5986 87.107C66.6832 87.1916 66.6832 87.1916 66.7678 87.1916C66.8524 87.1916 66.8524 87.2762 66.937 87.2762C67.0216 87.2762 67.0216 87.2762 67.1061 87.3608L67.5291 87.4454C67.8675 87.53 68.2904 87.4454 68.5442 87.1916L68.7134 87.0224L68.8825 86.8533C69.1363 86.5995 69.2209 86.1765 69.1363 85.8382L69.0517 85.4152C68.9671 85.246 68.8825 85.0769 68.7134 84.9077Z" fill="#0AE8F0"/>
<path d="M76.5808 84.485L76.1579 84.4004C75.8195 84.3158 75.3966 84.4004 75.1428 84.6541L74.889 84.9925C74.6352 85.2463 74.5506 85.6692 74.6352 86.0076L74.7198 86.4305C74.7198 86.5151 74.7198 86.5151 74.8044 86.5997C74.8044 86.6843 74.889 86.7689 74.889 86.7689C74.9736 86.8535 75.0582 86.9381 75.1428 87.0227C75.2274 87.0227 75.2274 87.1073 75.312 87.1073C75.3966 87.1073 75.3966 87.1073 75.4811 87.1919L75.9041 87.2765C76.2425 87.361 76.6654 87.2765 76.9192 86.9381L77.173 86.5997C77.4267 86.346 77.5113 85.923 77.4267 85.5846L77.3421 85.1617C77.2575 84.9079 76.9192 84.5696 76.5808 84.485Z" fill="#0AE8F0"/>
<path d="M76.6668 92.7748L76.3284 92.6902C75.99 92.6056 75.5671 92.6902 75.3133 93.0285L75.1441 93.1977L74.9749 93.3669C74.7212 93.6207 74.6366 94.0436 74.7212 94.382L74.8058 94.8049C74.8058 94.8895 74.8058 94.8895 74.8904 94.9741C74.8904 95.0587 74.9749 95.1433 74.9749 95.1433C74.9749 95.2279 75.0595 95.2279 75.0595 95.3125C75.1441 95.3971 75.1441 95.3971 75.2287 95.3971C75.3133 95.3971 75.3133 95.4817 75.3979 95.4817C75.4825 95.4817 75.4825 95.4817 75.5671 95.5663L75.99 95.6508C76.3284 95.7354 76.7514 95.6508 77.0051 95.3971L77.1743 95.2279L77.3435 95.0587C77.5973 94.8049 77.6818 94.382 77.5973 94.0436L77.5127 93.6207C77.4281 93.4515 77.3435 93.2823 77.2589 93.1131C77.0051 92.9439 76.9205 92.8594 76.6668 92.7748Z" fill="#0AE8F0"/>
<path d="M66.5145 70.6125C66.5991 70.6125 66.5991 70.6971 66.6837 70.6971C66.7683 70.6971 66.7683 70.6971 66.8528 70.7817L67.2758 70.8663C67.6142 70.9509 68.0371 70.8663 68.2909 70.6125L68.4601 70.4433L68.6292 70.2742C68.883 70.0204 68.9676 69.5974 68.883 69.2591L68.7138 68.8361C68.6292 68.6669 68.5447 68.4978 68.4601 68.3286C68.2909 68.1594 68.1217 68.0748 67.9525 68.0748L67.5296 67.9902C67.1912 67.9056 66.7683 67.9902 66.5145 68.244L66.3453 68.4132L66.1761 68.5824C65.9223 68.8361 65.8378 69.2591 65.9223 69.5974L66.0069 70.0204C66.0069 70.105 66.0069 70.105 66.0915 70.1896C66.0915 70.2742 66.1761 70.3588 66.1761 70.3588C66.1761 70.4433 66.2607 70.4433 66.2607 70.5279C66.4299 70.5279 66.5145 70.6125 66.5145 70.6125Z" fill="#0AE8F0"/>
<path d="M68.1199 76.3646L67.6969 76.28C67.3586 76.1954 66.9356 76.28 66.6818 76.6184L66.4281 76.9567C66.1743 77.2105 66.0897 77.6335 66.1743 77.9718L66.2589 78.3948C66.2589 78.4794 66.2589 78.4794 66.3435 78.564C66.3435 78.6486 66.4281 78.7332 66.4281 78.7332C66.5127 78.8177 66.5973 78.9023 66.6818 78.9869C66.7664 78.9869 66.7664 79.0715 66.851 79.0715C66.9356 79.0715 66.9356 79.0715 67.0202 79.1561L67.4432 79.2407C67.7815 79.3253 68.2045 79.2407 68.4582 78.9869L68.712 78.6486C68.9658 78.3948 69.0504 77.9718 68.9658 77.6335L68.8812 77.1259C68.7966 76.703 68.4582 76.4492 68.1199 76.3646Z" fill="#0AE8F0"/>
<path d="M58.1408 62.4913C58.2254 62.4913 58.2254 62.5759 58.31 62.5759C58.3946 62.5759 58.3946 62.5759 58.4792 62.6605L58.9021 62.7451C59.2405 62.8297 59.6635 62.7451 59.9172 62.4067L60.0864 62.2375L60.2556 62.0684C60.5094 61.8146 60.594 61.3916 60.5094 61.0533L60.4248 60.6303C60.3402 60.4611 60.2556 60.292 60.171 60.1228C60.0018 59.9536 59.8326 59.869 59.6635 59.869L59.2405 59.7844C58.9021 59.6998 58.4792 59.7844 58.2254 60.1228L58.0562 60.292L57.8871 60.4611C57.6333 60.7149 57.5487 61.1379 57.6333 61.4762L57.7179 61.8992C57.7179 61.9838 57.7179 61.9838 57.8025 62.0684C57.8025 62.153 57.8871 62.2375 57.8871 62.2375C57.8871 62.3221 57.9716 62.3221 57.9716 62.4067C58.0562 62.4067 58.0562 62.4067 58.1408 62.4913Z" fill="#0AE8F0"/>
<path d="M58.4799 70.8655C58.5645 70.8655 58.5645 70.8655 58.6491 70.95L59.0721 71.0346C59.4104 71.1192 59.8334 71.0346 60.0872 70.6963L60.3409 70.3579C60.5947 70.1041 60.6793 69.6812 60.5947 69.3428L60.5101 68.9199C60.4255 68.5815 60.0872 68.2432 59.7488 68.1586L59.3258 68.074C58.9875 67.9894 58.5645 68.074 58.3108 68.4123L58.057 68.7507C57.8032 69.0045 57.7186 69.4274 57.8032 69.7658L57.8878 70.1887C57.8878 70.2733 57.8878 70.2733 57.9724 70.3579C57.9724 70.4425 58.057 70.5271 58.057 70.5271C58.1416 70.6117 58.2262 70.6963 58.3108 70.7809C58.3108 70.7809 58.3953 70.8655 58.4799 70.8655Z" fill="#0AE8F0"/>
<path d="M43.5915 62.4067C43.8453 62.153 43.9299 61.73 43.8453 61.3917L43.7607 60.9687C43.6761 60.7995 43.5915 60.6303 43.5069 60.4612C43.3378 60.292 43.1686 60.2074 42.9994 60.2074L42.5764 60.1228C42.2381 60.0382 41.8151 60.1228 41.5614 60.4612L41.3922 60.6303L41.223 60.7995C40.9692 61.0533 40.8846 61.4762 40.9692 61.8146L41.0538 62.2376C41.0538 62.3222 41.0538 62.3221 41.1384 62.4067C41.1384 62.4913 41.223 62.5759 41.223 62.5759C41.223 62.6605 41.3076 62.6605 41.3076 62.7451C41.3922 62.8297 41.3922 62.8297 41.4768 62.8297C41.5614 62.8297 41.5614 62.9143 41.6459 62.9143C41.7305 62.9143 41.7305 62.9143 41.8151 62.9989L42.2381 63.0835C42.5764 63.1681 42.9994 63.0835 43.2532 62.8297L43.4223 62.6605L43.5915 62.4067Z" fill="#0AE8F0"/>
<path d="M52.1338 61.2225L52.0492 60.7995C51.9646 60.4611 51.6262 60.1228 51.2879 60.0382L50.8649 59.9536C50.5265 59.869 50.1036 59.9536 49.8498 60.2074L49.596 60.5457C49.3423 60.7995 49.2577 61.2225 49.3423 61.5608L49.4269 61.9838C49.4269 62.0684 49.4269 62.0684 49.5114 62.153C49.5114 62.2375 49.596 62.3221 49.596 62.3221C49.6806 62.4067 49.7652 62.4913 49.8498 62.5759C49.9344 62.5759 49.9344 62.6605 50.019 62.6605C50.1036 62.6605 50.1036 62.6605 50.1882 62.7451L50.6111 62.8297C50.9495 62.9143 51.3724 62.8297 51.6262 62.4913L51.88 62.153C52.1338 61.9838 52.2184 61.5608 52.1338 61.2225Z" fill="#0AE8F0"/>
<path d="M41.4766 46.2496C41.5612 46.2496 41.5612 46.2496 41.6458 46.3342L42.0688 46.4188C42.4071 46.5034 42.8301 46.4188 43.0839 46.165L43.253 45.9958L43.3376 45.8267C43.5914 45.5729 43.676 45.1499 43.5914 44.8116L43.5068 44.3886C43.4222 44.2194 43.3376 44.0503 43.253 43.8811C43.0839 43.7119 42.9147 43.6273 42.7455 43.6273L42.3225 43.5427C41.9842 43.4581 41.5612 43.5427 41.3074 43.8811L41.1383 44.0503L40.9691 44.1349C40.7153 44.3886 40.6307 44.8116 40.7153 45.1499L40.7999 45.5729C40.7999 45.6575 40.7999 45.6575 40.8845 45.7421C40.8845 45.8267 40.9691 45.9113 40.9691 45.9113C40.9691 45.9958 41.0537 45.9958 41.0537 46.0804C41.1383 46.165 41.1383 46.165 41.2229 46.165C41.3074 46.165 41.392 46.2496 41.4766 46.2496Z" fill="#0AE8F0"/>
<path d="M41.562 54.54C41.6466 54.54 41.6466 54.54 41.7311 54.6246L42.1541 54.7092C42.4925 54.7938 42.9154 54.7092 43.1692 54.3708L43.423 54.0325C43.6767 53.7787 43.7613 53.3557 43.6767 53.0174L43.5921 52.5944C43.5075 52.2561 43.1692 51.9177 42.8308 51.8331L42.4079 51.7485C42.0695 51.6639 41.6466 51.7485 41.3928 52.0023L41.139 52.3407C40.8852 52.5944 40.8006 53.0174 40.8852 53.3557L40.9698 53.7787C40.9698 53.8633 40.9698 53.8633 41.0544 53.9479C41.0544 54.0325 41.139 54.1171 41.139 54.1171C41.2236 54.2016 41.3082 54.2862 41.3928 54.3708C41.4774 54.4554 41.562 54.54 41.562 54.54Z" fill="#0AE8F0"/>
<path d="M32.4231 45.3192L32.5077 45.7422C32.5077 45.8268 32.5077 45.8268 32.5923 45.9114C32.5923 45.996 32.6769 46.0806 32.6769 46.0806C32.7615 46.1651 32.846 46.2497 32.9306 46.3343C33.0152 46.3343 33.0152 46.4189 33.0998 46.4189C33.1844 46.4189 33.1844 46.4189 33.269 46.5035L33.6919 46.5881C34.0303 46.6727 34.4533 46.5881 34.707 46.2497L34.9608 45.9114C35.2146 45.6576 35.2992 45.2346 35.2146 44.8963L35.13 44.4733C35.0454 44.135 34.707 43.7966 34.3687 43.712L34.0303 43.6274C33.6919 43.5428 33.269 43.6274 33.0152 43.8812L32.7615 44.2196C32.4231 44.5579 32.3385 44.8963 32.4231 45.3192Z" fill="#0AE8F0"/>
<path d="M32.5082 36.0144C32.2544 36.2681 32.1698 36.6911 32.2544 37.0295L32.339 37.4524C32.339 37.537 32.339 37.537 32.4236 37.6216C32.4236 37.7062 32.5082 37.7908 32.5082 37.7908C32.5082 37.8754 32.5927 37.8754 32.5927 37.9599C32.6773 38.0445 32.6773 38.0445 32.7619 38.0445C32.8465 38.0445 32.8465 38.1291 32.9311 38.1291C33.0157 38.1291 33.0157 38.1291 33.1003 38.2137L33.5232 38.2983C33.8616 38.3829 34.2846 38.2983 34.5383 37.9599L34.7075 37.7908L34.8767 37.6216C35.1305 37.3678 35.215 36.9449 35.1305 36.6065L35.0459 36.1835C34.9613 36.0144 34.8767 35.8452 34.7921 35.676C34.6229 35.5068 34.4537 35.4222 34.2846 35.4222L33.8616 35.3376C33.5232 35.253 33.1003 35.3376 32.8465 35.676L32.6773 35.8452L32.5082 36.0144Z" fill="#0AE8F0"/>
<path d="M92.7346 84.1462C92.3963 84.0616 91.9733 84.1462 91.7196 84.4846L91.3812 84.7384C91.1274 84.9921 91.0428 85.4151 91.1274 85.7534L91.212 86.1764C91.212 86.261 91.212 86.261 91.2966 86.3456C91.2966 86.4302 91.3812 86.5148 91.3812 86.5148C91.4658 86.5994 91.5504 86.684 91.635 86.7685C91.7196 86.7685 91.7196 86.8531 91.8042 86.8531C91.8887 86.8531 91.8887 86.8531 91.9733 86.9377L92.3963 87.0223C92.7346 87.1069 93.1576 87.0223 93.4114 86.7685L93.6651 86.4302C93.9189 86.1764 94.0035 85.7535 93.9189 85.4151L93.8343 84.9921C93.7497 84.6538 93.4114 84.3154 93.073 84.2308L92.7346 84.1462Z" fill="#0AE8F0"/>
<path d="M76.919 76.5329C76.7499 76.3638 76.5807 76.2792 76.4115 76.2792L75.9886 76.1946C75.6502 76.11 75.2272 76.1946 74.9735 76.5329L74.8043 76.7021L74.6351 76.8713C74.3813 77.1251 74.2967 77.548 74.3813 77.8864L74.4659 78.3093C74.4659 78.3939 74.4659 78.3939 74.5505 78.4785C74.5505 78.5631 74.6351 78.6477 74.6351 78.6477C74.6351 78.7323 74.7197 78.7323 74.7197 78.8169C74.8043 78.9015 74.8043 78.9015 74.8889 78.9015C74.9735 78.9015 74.9735 78.9861 75.0581 78.9861C75.1426 78.9861 75.1426 78.9861 75.2272 79.0707L75.6502 79.1552C75.9886 79.2398 76.4115 79.1552 76.6653 78.9015L76.8345 78.7323L77.0036 78.5631C77.2574 78.3093 77.342 77.8864 77.2574 77.548L77.1728 76.9559C77.1728 76.7867 77.0036 76.6175 76.919 76.5329Z" fill="#0AE8F0"/>
<path d="M84.7019 76.1107L84.279 76.0261C83.9406 75.9415 83.5176 76.0261 83.2639 76.3645L83.0101 76.7028C82.7563 76.9566 82.6717 77.3796 82.7563 77.7179L82.8409 78.1409C82.8409 78.2255 82.8409 78.2255 82.9255 78.3101C82.9255 78.3947 83.0101 78.4792 83.0101 78.4792C83.0947 78.5638 83.1793 78.6484 83.2639 78.733C83.3485 78.733 83.3485 78.8176 83.4331 78.8176C83.5176 78.8176 83.5176 78.8176 83.6022 78.9022L84.0252 78.9868C84.3636 79.0714 84.7865 78.9868 85.0403 78.6484L85.294 78.3101C85.5478 78.0563 85.6324 77.6333 85.5478 77.295L85.4632 76.872C85.3786 76.4491 85.0403 76.1953 84.7019 76.1107Z" fill="#0AE8F0"/>
<path d="M84.8705 84.4005L84.4475 84.3159C84.1092 84.2313 83.6862 84.3159 83.4325 84.5697L83.2633 84.7389L83.0941 84.908C82.8403 85.1618 82.7557 85.5848 82.8403 85.9231L82.9249 86.3461C82.9249 86.4307 82.9249 86.4307 83.0095 86.5153C83.0095 86.5998 83.0941 86.6844 83.0941 86.6844C83.0941 86.769 83.1787 86.769 83.1787 86.8536C83.2633 86.9382 83.2633 86.9382 83.3479 86.9382C83.4325 86.9382 83.4325 87.0228 83.517 87.0228C83.6016 87.0228 83.6016 87.0228 83.6862 87.1074L84.1092 87.192C84.4475 87.2766 84.8705 87.192 85.1243 86.9382L85.2934 86.769L85.4626 86.5998C85.7164 86.3461 85.801 85.9231 85.7164 85.5848L85.6318 85.1618C85.5472 84.9926 85.4626 84.8234 85.378 84.6543C85.2089 84.4851 85.0397 84.4005 84.8705 84.4005Z" fill="#0AE8F0"/>
<path d="M74.717 62.1534C74.8016 62.1534 74.8016 62.238 74.8862 62.238C74.9708 62.238 74.9708 62.238 75.0554 62.3226L75.4783 62.4072C75.8167 62.4918 76.2396 62.4072 76.4934 62.0688L76.6626 61.8997L76.8318 61.7305C77.0855 61.4767 77.1701 61.0537 77.0855 60.7154L77.0009 60.2924C76.9164 60.1233 76.8318 59.9541 76.7472 59.7849C76.578 59.6157 76.4088 59.5311 76.2396 59.5311L75.8167 59.4465C75.4783 59.3619 75.0554 59.4465 74.8016 59.7849L74.6324 59.9541L74.4632 60.1233C74.2095 60.377 74.1249 60.8 74.2095 61.1383L74.294 61.5613C74.294 61.6459 74.294 61.6459 74.3786 61.7305C74.3786 61.8151 74.4632 61.8997 74.4632 61.8997C74.4632 61.9842 74.5478 61.9842 74.5478 62.0688C74.5478 62.0688 74.6324 62.1534 74.717 62.1534Z" fill="#0AE8F0"/>
<path d="M76.2423 67.9049L75.904 67.8203C75.5656 67.7357 75.1427 67.8203 74.8889 68.0741L74.6351 68.4124C74.3813 68.6662 74.2967 69.0892 74.3813 69.4275L74.4659 69.8505C74.4659 69.9351 74.4659 69.9351 74.5505 70.0197C74.5505 70.1042 74.6351 70.1888 74.6351 70.1888C74.7197 70.2734 74.8043 70.358 74.8889 70.4426C74.9735 70.4426 74.9735 70.5272 75.0581 70.5272C75.1426 70.5272 75.1426 70.5272 75.2272 70.6118L75.6502 70.6964C75.9886 70.781 76.4115 70.6964 76.6653 70.4426L76.919 70.1042C77.1728 69.8505 77.2574 69.4275 77.1728 69.0892L77.0882 68.6662C76.9191 68.3278 76.6653 67.9895 76.2423 67.9049Z" fill="#0AE8F0"/>
<path d="M66.26 54.0323C66.3446 54.0323 66.3446 54.1169 66.4291 54.1169C66.5137 54.1169 66.5137 54.1169 66.5983 54.2015L67.0213 54.2861C67.3596 54.3707 67.7826 54.2861 68.0364 53.9477L68.2056 53.7786L68.3747 53.6094C68.6285 53.3556 68.7131 52.9327 68.6285 52.5943L68.5439 52.1713C68.4593 52.0022 68.3747 51.833 68.2901 51.6638C68.121 51.4946 67.9518 51.41 67.7826 51.41L67.3596 51.3254C67.0213 51.2408 66.5983 51.3254 66.3446 51.6638L66.1754 51.833L66.0062 52.0022C65.7524 52.2559 65.6678 52.6789 65.7524 53.0172L65.837 53.4402C65.837 53.5248 65.837 53.5248 65.9216 53.6094C65.9216 53.694 66.0062 53.7786 66.0062 53.7786C66.0062 53.8632 66.0908 53.8631 66.0908 53.9477C66.1754 53.9477 66.1754 54.0323 66.26 54.0323Z" fill="#0AE8F0"/>
<path d="M66.5991 62.4066C66.6837 62.4066 66.6837 62.4066 66.7683 62.4912L67.1912 62.5758C67.5296 62.6604 67.9525 62.5758 68.2063 62.322L68.4601 61.9836C68.7138 61.7299 68.7984 61.3069 68.7138 60.9685L68.6292 60.5456C68.5447 60.2072 68.2063 59.8689 67.8679 59.7843L67.445 59.6997C67.1066 59.6151 66.6837 59.6997 66.4299 59.9535L66.1761 60.2918C65.9223 60.5456 65.8378 60.9685 65.9223 61.3069L66.0069 61.7299C66.0069 61.8145 66.0069 61.8145 66.0915 61.899C66.0915 61.9836 66.1761 62.0682 66.1761 62.0682C66.2607 62.1528 66.3453 62.2374 66.4299 62.322C66.4299 62.322 66.5145 62.4066 66.5991 62.4066Z" fill="#0AE8F0"/>
<path d="M51.7107 53.9475C51.9644 53.6937 52.049 53.2708 51.9644 52.9324L51.8799 52.5095C51.7953 52.3403 51.7107 52.1711 51.6261 52.0019C51.4569 51.8327 51.2877 51.7481 51.1185 51.7481L50.6956 51.6636C50.3572 51.579 49.9343 51.6636 49.6805 51.9173L49.5113 52.0865L49.3421 52.2557C49.0884 52.5095 49.0038 52.9324 49.0884 53.2708L49.173 53.6937C49.173 53.7783 49.173 53.7783 49.2575 53.8629C49.2575 53.9475 49.3421 54.0321 49.3421 54.0321C49.3421 54.1167 49.4267 54.1167 49.4267 54.2013C49.5113 54.2859 49.5113 54.2859 49.5959 54.2859C49.6805 54.2859 49.6805 54.3705 49.7651 54.3705C49.8497 54.3705 49.8497 54.3705 49.9343 54.455L50.3572 54.5396C50.6956 54.6242 51.1185 54.5396 51.3723 54.2013L51.5415 54.0321L51.7107 53.9475Z" fill="#0AE8F0"/>
<path d="M60.3394 52.7632L60.2549 52.3403C60.1703 52.0019 59.8319 51.6636 59.4935 51.579L59.0706 51.4944C58.7322 51.4098 58.3093 51.4944 58.0555 51.8327L57.7171 52.1711C57.4634 52.4249 57.3788 52.8478 57.4634 53.1862L57.548 53.6091C57.548 53.6937 57.548 53.6937 57.6325 53.7783C57.6325 53.8629 57.7171 53.9475 57.7171 53.9475C57.8017 54.0321 57.8863 54.1167 57.9709 54.2013C58.0555 54.2013 58.0555 54.2859 58.1401 54.2859C58.2247 54.2859 58.2247 54.2859 58.3093 54.3705L58.7322 54.455C59.0706 54.5396 59.4935 54.455 59.7473 54.2013L60.0011 53.8629C60.3394 53.5246 60.424 53.1862 60.3394 52.7632Z" fill="#0AE8F0"/>
<path d="M49.5958 37.875C49.6804 37.875 49.6804 37.875 49.765 37.9596L50.1879 38.0442C50.5263 38.1287 50.9492 38.0442 51.203 37.7058L51.3722 37.5366L51.5414 37.3674C51.7951 37.1137 51.8797 36.6907 51.7951 36.3523L51.7105 35.9294C51.6259 35.7602 51.5414 35.591 51.4568 35.4218C51.2876 35.2527 51.1184 35.1681 50.9492 35.1681L50.5263 35.0835C50.1879 34.9989 49.765 35.0835 49.5112 35.3373L49.2574 35.5064L49.0882 35.6756C48.8345 35.9294 48.7499 36.3523 48.8345 36.6907L48.919 37.1137C48.919 37.1982 48.919 37.1982 49.0036 37.2828C49.0036 37.3674 49.0882 37.452 49.0882 37.452C49.0882 37.5366 49.1728 37.5366 49.1728 37.6212C49.2574 37.7058 49.2574 37.7058 49.342 37.7058C49.4266 37.7904 49.5112 37.7904 49.5958 37.875Z" fill="#0AE8F0"/>
<path d="M49.7657 46.1655C49.8503 46.1655 49.8503 46.1655 49.9349 46.2501L50.3578 46.3347C50.6962 46.4193 51.1191 46.3347 51.3729 45.9963L51.6267 45.658C51.8805 45.4042 51.965 44.9812 51.8805 44.6429L51.7959 44.2199C51.7113 43.8816 51.3729 43.5432 51.0346 43.4586L50.6116 43.374C50.2732 43.2894 49.8503 43.374 49.5965 43.6278L49.2581 43.9661C49.0044 44.2199 48.9198 44.6429 49.0044 44.9812L49.089 45.4042C49.089 45.4888 49.089 45.4888 49.1736 45.5734C49.1736 45.658 49.2581 45.7425 49.2581 45.7425C49.3427 45.8271 49.4273 45.9117 49.5119 45.9963C49.5965 46.0809 49.6811 46.0809 49.7657 46.1655Z" fill="#0AE8F0"/>
<path d="M40.5434 36.8606L40.628 37.2836C40.628 37.3682 40.628 37.3682 40.7126 37.4528C40.7126 37.5373 40.7972 37.6219 40.7972 37.6219C40.8818 37.7065 40.9664 37.7911 41.051 37.8757C41.1356 37.8757 41.1356 37.9603 41.2202 37.9603C41.3048 37.9603 41.3048 37.9603 41.3893 38.0449L41.8123 38.1295C42.1507 38.2141 42.5736 38.1295 42.8274 37.8757L43.0812 37.5373C43.3349 37.2836 43.4195 36.8606 43.3349 36.5223V36.0993C43.2503 35.7609 42.912 35.4226 42.5736 35.338L42.1507 35.2534C41.8123 35.1688 41.3893 35.2534 41.1356 35.5072L40.7972 35.8455C40.5434 36.0993 40.4588 36.5223 40.5434 36.8606Z" fill="#0AE8F0"/>
<path d="M33.693 27.1321C33.3547 27.0475 32.9317 27.1321 32.6779 27.4704L32.4242 27.8088C32.1704 28.0626 32.0858 28.4855 32.1704 28.8239L32.255 29.2468C32.255 29.3314 32.255 29.3314 32.3396 29.416C32.3396 29.5006 32.4242 29.5852 32.4242 29.5852C32.5088 29.6698 32.5933 29.7544 32.6779 29.839C32.7625 29.839 32.7625 29.9236 32.8471 29.9236C32.9317 29.9236 32.9317 29.9236 33.0163 30.0082L33.4393 30.0927C33.7776 30.1773 34.2006 30.0927 34.4543 29.7544L34.7081 29.416C34.9619 29.1622 35.0465 28.7393 34.9619 28.4009L34.8773 27.978C34.7927 27.6396 34.4543 27.3013 34.116 27.2167L33.693 27.1321Z" fill="#0AE8F0"/>
<path d="M40.7132 27.5554C40.4595 27.8092 40.3749 28.2321 40.4595 28.5705L40.544 28.9934C40.544 29.078 40.544 29.078 40.6286 29.1626C40.6286 29.2472 40.7132 29.3318 40.7132 29.3318C40.7132 29.4164 40.7978 29.4164 40.7978 29.501C40.8824 29.5856 40.8824 29.5856 40.967 29.5856C41.0516 29.5856 41.0516 29.6701 41.1362 29.6701C41.2208 29.6701 41.2208 29.6701 41.3054 29.7547L41.7283 29.8393C42.0667 29.9239 42.4896 29.8393 42.7434 29.501L42.9126 29.3318L43.0818 29.1626C43.3355 28.9088 43.4201 28.4859 43.3355 28.1475L43.2509 27.7246C43.1664 27.5554 43.0818 27.3862 42.9972 27.217C42.828 27.0478 42.6588 26.9632 42.4896 26.9632L42.0667 26.8787C41.7283 26.7941 41.3054 26.8787 41.0516 27.217L40.7978 27.3862L40.7132 27.5554Z" fill="#0AE8F0"/>
<path d="M100.859 75.6875C100.521 75.6029 100.098 75.6875 99.844 75.9413L99.5902 76.2796C99.3364 76.5334 99.2518 76.9563 99.3364 77.2947L99.421 77.7177C99.421 77.8022 99.421 77.8022 99.5056 77.8868C99.5056 77.9714 99.5902 78.056 99.5902 78.056C99.6748 78.1406 99.7594 78.2252 99.844 78.3098C99.9285 78.3098 99.9285 78.3944 100.013 78.3944C100.098 78.3944 100.098 78.3944 100.182 78.479L100.605 78.5636C100.944 78.6481 101.367 78.5636 101.62 78.2252L101.874 77.8868C102.128 77.6331 102.212 77.2101 102.128 76.8717L102.043 76.4488C101.959 76.1104 101.62 75.7721 101.282 75.6875H100.859Z" fill="#0AE8F0"/>
<path d="M85.0401 68.0742C84.9556 67.905 84.7864 67.8204 84.5326 67.8204L84.1096 67.7358C83.7713 67.6512 83.3483 67.7358 83.0946 67.9896L82.9254 68.1588L82.7562 68.328C82.5024 68.5817 82.4178 69.0047 82.5024 69.343L82.587 69.766C82.587 69.8506 82.587 69.8506 82.6716 69.9352C82.6716 70.0198 82.7562 70.1044 82.7562 70.1044C82.7562 70.189 82.8408 70.189 82.8408 70.2735C82.9254 70.3581 82.9254 70.3581 83.01 70.3581C83.0946 70.3581 83.0946 70.4427 83.1791 70.4427C83.2637 70.4427 83.2637 70.4427 83.3483 70.5273L83.7713 70.6119C84.1096 70.6965 84.5326 70.6119 84.7864 70.3581L84.9555 70.1889L85.1247 70.0198C85.3785 69.766 85.4631 69.343 85.3785 69.0047L85.2939 68.5817C85.2939 68.328 85.2093 68.1588 85.0401 68.0742Z" fill="#0AE8F0"/>
<path d="M92.8211 67.6517L92.3981 67.5671C92.0597 67.4825 91.6368 67.5671 91.383 67.9055L91.1292 68.2439C90.8755 68.4976 90.7909 68.9206 90.8755 69.2589L90.9601 69.6819C90.9601 69.7665 90.9601 69.7665 91.0447 69.8511C91.0447 69.9357 91.1292 70.0203 91.1292 70.0203C91.2138 70.1048 91.2984 70.1894 91.383 70.274C91.4676 70.274 91.4676 70.3586 91.5522 70.3586C91.6368 70.3586 91.6368 70.3586 91.7214 70.4432L92.1443 70.5278C92.4827 70.6124 92.9056 70.5278 93.1594 70.274L93.4132 69.9357C93.667 69.6819 93.7516 69.2589 93.667 68.9206L93.5824 68.4976C93.4978 68.0747 93.244 67.7363 92.8211 67.6517Z" fill="#0AE8F0"/>
<path d="M92.9896 75.941L92.5667 75.8564C92.2283 75.7718 91.8054 75.8564 91.5516 76.1102L91.3824 76.2794L91.2132 76.4486C90.9595 76.7023 90.8749 77.1253 90.9595 77.4637L91.044 77.8866C91.044 77.9712 91.044 77.9712 91.1286 78.0558C91.1286 78.1404 91.2132 78.225 91.2132 78.225C91.2132 78.3096 91.2978 78.3096 91.2978 78.3941C91.2978 78.4787 91.3824 78.4787 91.467 78.4787C91.5516 78.4787 91.5516 78.5633 91.6362 78.5633C91.7208 78.5633 91.7208 78.5633 91.8054 78.6479L92.2283 78.7325C92.5667 78.8171 92.9896 78.7325 93.2434 78.4787L93.4126 78.3096L93.5818 78.1404C93.8355 77.8866 93.9201 77.4636 93.8355 77.1253L93.7509 76.7023C93.6664 76.5332 93.5818 76.364 93.4972 76.1948C93.328 76.1102 93.1588 76.0256 92.9896 75.941Z" fill="#0AE8F0"/>
<path d="M82.842 53.7789C82.9266 53.7789 82.9266 53.8635 83.0112 53.8635C83.0958 53.8635 83.0958 53.8635 83.1804 53.9481L83.6033 54.0327C83.9417 54.1173 84.3646 54.0327 84.6184 53.6943L84.7876 53.5251L84.9568 53.356C85.2105 53.1022 85.2951 52.6792 85.2105 52.3409L85.1259 51.9179C85.0414 51.7487 84.9568 51.5796 84.8722 51.4104C84.703 51.2412 84.5338 51.1566 84.3646 51.1566L83.9417 51.072C83.6033 50.9874 83.1804 51.072 82.9266 51.4104L82.7574 51.5796L82.5882 51.7487C82.3345 52.0025 82.2499 52.4255 82.3345 52.7638L82.419 53.1868C82.419 53.2714 82.419 53.2714 82.5036 53.356C82.5036 53.4406 82.5882 53.5251 82.5882 53.5251C82.5882 53.6097 82.6728 53.6097 82.6728 53.6943C82.7574 53.6943 82.7574 53.6943 82.842 53.7789Z" fill="#0AE8F0"/>
<path d="M84.448 59.5305L84.0251 59.3613C83.6867 59.2767 83.2637 59.3613 83.01 59.6151L82.7562 59.9534C82.5024 60.2072 82.4178 60.6302 82.5024 60.9685L82.587 61.3915C82.587 61.4761 82.587 61.4761 82.6716 61.5607C82.6716 61.6453 82.7562 61.7298 82.7562 61.7298C82.8408 61.8144 82.9254 61.899 83.01 61.9836C83.0946 61.9836 83.0946 62.0682 83.1791 62.0682C83.2637 62.0682 83.2637 62.0682 83.3483 62.1528L83.7713 62.2374C84.1096 62.322 84.5326 62.2374 84.7864 61.899L85.0401 61.5607C85.2939 61.3069 85.3785 60.8839 85.2939 60.5456L85.2093 60.1226C85.1247 59.8689 84.7864 59.6151 84.448 59.5305Z" fill="#0AE8F0"/>
<path d="M74.3811 45.5735C74.4657 45.5735 74.4657 45.6581 74.5502 45.6581C74.6348 45.6581 74.6348 45.6581 74.7194 45.7426L75.1424 45.8272C75.4807 45.9118 75.9037 45.8272 76.1575 45.4889L76.3266 45.3197L76.4958 45.1505C76.7496 44.8967 76.8342 44.4738 76.7496 44.1354L76.665 43.7125C76.5804 43.5433 76.4958 43.3741 76.4112 43.2049C76.2421 43.0357 76.0729 42.9512 75.9037 42.9512H75.4807C75.1424 42.8666 74.7194 42.9512 74.4657 43.2049L74.2965 43.3741L74.1273 43.5433C73.8735 43.7971 73.7889 44.22 73.8735 44.5584L73.9581 44.9813C73.9581 45.0659 73.9581 45.0659 74.0427 45.1505C74.0427 45.2351 74.1273 45.3197 74.1273 45.3197C74.1273 45.4043 74.2119 45.4043 74.2119 45.4889C74.2965 45.4889 74.3811 45.5735 74.3811 45.5735Z" fill="#0AE8F0"/>
<path d="M74.7182 54.0323C74.8028 54.0323 74.8028 54.0323 74.8874 54.1169L75.3103 54.2015C75.6487 54.2861 76.0717 54.2015 76.3254 53.9477L76.5792 53.6094C76.833 53.3556 76.9176 52.9327 76.833 52.5943L76.7484 52.1713C76.6638 51.833 76.3254 51.4946 75.9871 51.41L75.5641 51.3254C75.2258 51.2408 74.8028 51.3254 74.549 51.6638L74.2953 52.0022C74.0415 52.2559 73.9569 52.6789 74.0415 53.0172L74.1261 53.4402C74.1261 53.5248 74.1261 53.5248 74.2107 53.6094C74.2107 53.694 74.2953 53.7786 74.2953 53.7786C74.3798 53.8632 74.4644 53.9477 74.549 54.0323C74.6336 53.9477 74.7182 53.9477 74.7182 54.0323Z" fill="#0AE8F0"/>
<path d="M59.9138 45.5735C60.1676 45.3197 60.2522 44.8968 60.1676 44.5584L60.083 44.1354C59.9984 43.9663 59.9138 43.7971 59.8292 43.6279C59.66 43.4587 59.4908 43.3741 59.3217 43.3741L58.8987 43.2895C58.5603 43.2049 58.1374 43.2895 57.8836 43.5433L57.7144 43.7125L57.5453 43.8817C57.2915 44.1354 57.2069 44.5584 57.2915 44.8968L57.3761 45.3197C57.3761 45.4043 57.3761 45.4043 57.4607 45.4889C57.4607 45.5735 57.5453 45.6581 57.5453 45.6581C57.5453 45.7427 57.6299 45.7427 57.6299 45.8273C57.7144 45.9118 57.7144 45.9118 57.799 45.9118C57.8836 45.9118 57.8836 45.9964 57.9682 45.9964C58.0528 45.9964 58.0528 45.9964 58.1374 46.081L58.5603 46.1656C58.8987 46.2502 59.3217 46.1656 59.5754 45.9118L59.7446 45.7427L59.9138 45.5735Z" fill="#0AE8F0"/>
<path d="M68.4599 44.3885L68.3753 43.9655C68.2907 43.6272 67.9524 43.2888 67.614 43.2042L67.1911 43.1196C66.8527 43.035 66.4298 43.1196 66.176 43.3734L65.9222 43.7117C65.6684 43.9655 65.5838 44.3885 65.6684 44.7268L65.753 45.1498C65.753 45.2344 65.753 45.2344 65.8376 45.319C65.8376 45.4036 65.9222 45.4882 65.9222 45.4882C66.0068 45.5727 66.0914 45.6573 66.176 45.7419C66.2606 45.7419 66.2606 45.8265 66.3452 45.8265C66.4298 45.8265 66.4298 45.8265 66.5143 45.9111L66.9373 45.9957C67.2757 46.0803 67.6986 45.9957 67.9524 45.6573L68.2062 45.319C68.4599 45.1498 68.5445 44.7268 68.4599 44.3885Z" fill="#0AE8F0"/>
<path d="M57.7169 29.4161C57.8015 29.4161 57.8015 29.4161 57.886 29.5007L58.309 29.5853C58.6474 29.6699 59.0703 29.5853 59.3241 29.3315L59.4933 29.1623L59.6624 28.9932C59.9162 28.7394 60.0008 28.3164 59.9162 27.9781L59.8316 27.5551C59.747 27.3859 59.6625 27.2168 59.5779 27.0476C59.4087 26.8784 59.2395 26.7938 59.0703 26.7938L58.5628 26.7092C58.2244 26.6246 57.8015 26.7092 57.5477 27.0476L57.3785 27.2168L57.2093 27.3859C56.9556 27.6397 56.871 28.0627 56.9555 28.401L57.0401 28.824C57.0401 28.9086 57.0401 28.9086 57.1247 28.9932C57.1247 29.0778 57.2093 29.1623 57.2093 29.1623C57.2093 29.2469 57.2939 29.2469 57.2939 29.3315C57.3785 29.4161 57.3785 29.4161 57.4631 29.4161C57.6323 29.3315 57.7169 29.4161 57.7169 29.4161Z" fill="#0AE8F0"/>
<path d="M57.8842 37.7062C57.9688 37.7062 57.9688 37.7062 58.0534 37.7907L58.4764 37.8753C58.8147 37.9599 59.2377 37.8753 59.4914 37.6216L59.7452 37.2832C59.999 37.0294 60.0836 36.6065 59.999 36.2681L59.9144 35.8452C59.8298 35.5068 59.4914 35.1684 59.1531 35.0838L58.7301 34.9993C58.3918 34.9147 57.9688 34.9993 57.715 35.3376L57.4613 35.676C57.2075 35.9298 57.1229 36.3527 57.2075 36.6911L57.2921 37.114C57.2921 37.1986 57.2921 37.1986 57.3767 37.2832C57.3767 37.3678 57.4613 37.4524 57.4613 37.4524C57.5459 37.537 57.6305 37.6216 57.715 37.7062C57.715 37.6216 57.7996 37.7062 57.8842 37.7062Z" fill="#0AE8F0"/>
<path d="M48.7517 28.4857L48.8363 28.9087C48.8363 28.9933 48.8363 28.9933 48.9209 29.0779C48.9209 29.1625 49.0055 29.2471 49.0055 29.2471C49.0901 29.3316 49.1746 29.4162 49.2592 29.5008C49.3438 29.5008 49.3438 29.5854 49.4284 29.5854C49.513 29.5854 49.513 29.5854 49.5976 29.67L50.0206 29.7546C50.3589 29.8392 50.7819 29.7546 51.0356 29.4162L51.2894 29.0779C51.5432 28.8241 51.6278 28.4012 51.5432 28.0628L51.4586 27.6398C51.374 27.3015 51.0356 26.9631 50.6973 26.8785L50.2743 26.7939C49.936 26.7093 49.513 26.7939 49.2592 27.0477L49.0055 27.3861C48.7517 27.6398 48.5825 28.0628 48.7517 28.4857Z" fill="#0AE8F0"/>
<path d="M109.062 67.313C108.724 67.2284 108.301 67.313 108.047 67.5667L107.793 67.9051C107.54 68.1589 107.455 68.5818 107.54 68.9202L107.624 69.3431C107.624 69.4277 107.624 69.4277 107.709 69.5123C107.709 69.5969 107.793 69.6815 107.793 69.6815C107.878 69.7661 107.962 69.8507 108.047 69.9353C108.132 69.9353 108.132 70.0199 108.216 70.0199C108.301 70.0199 108.301 70.0199 108.385 70.1045L108.808 70.1891C109.147 70.2736 109.57 70.1891 109.823 69.9353L110.077 69.5969C110.331 69.3431 110.416 68.9202 110.331 68.5818L110.246 68.1589C110.162 67.8205 109.823 67.4822 109.485 67.3976L109.062 67.313Z" fill="#0AE8F0"/>
<path d="M93.1593 59.6152C92.9901 59.446 92.8209 59.3614 92.6517 59.3614L92.2288 59.2768C91.8904 59.1922 91.4675 59.2768 91.2137 59.5306L91.0445 59.6998L90.8753 59.869C90.6216 60.1227 90.537 60.5457 90.6216 60.8841L90.7062 61.307C90.7062 61.3916 90.7062 61.3916 90.7907 61.4762C90.7907 61.5608 90.8753 61.6454 90.8753 61.6454C90.8753 61.73 90.9599 61.73 90.9599 61.8146C91.0445 61.8991 91.0445 61.8991 91.1291 61.8991C91.2137 61.8991 91.2137 61.9837 91.2983 61.9837C91.3829 61.9837 91.3829 61.9837 91.4675 62.0683L91.8904 62.1529C92.2288 62.2375 92.6517 62.1529 92.9055 61.8991L93.0747 61.73L93.2439 61.5608C93.4976 61.307 93.5822 60.8841 93.4976 60.5457L93.4131 60.1227C93.4131 59.9536 93.3285 59.7844 93.1593 59.6152Z" fill="#0AE8F0"/>
<path d="M101.028 59.1927L100.605 59.1081C100.267 59.0236 99.8438 59.1081 99.59 59.4465L99.3363 59.7849C99.0825 60.0386 98.9979 60.4616 99.0825 60.8L99.1671 61.2229C99.1671 61.3075 99.1671 61.3075 99.2517 61.3921C99.2517 61.4767 99.3363 61.5613 99.3363 61.5613C99.4209 61.6459 99.5055 61.7305 99.59 61.815C99.6746 61.815 99.6746 61.8996 99.7592 61.8996C99.8438 61.8996 99.8438 61.8996 99.9284 61.9842L100.351 62.0688C100.69 62.1534 101.113 62.0688 101.366 61.815L101.62 61.4767C101.874 61.2229 101.959 60.8 101.874 60.4616L101.789 60.0386C101.705 59.6157 101.366 59.2773 101.028 59.1927Z" fill="#0AE8F0"/>
<path d="M101.113 67.482L100.69 67.3974C100.351 67.3129 99.9284 67.3974 99.6746 67.6512L99.5055 67.8204L99.3363 67.9896C99.0825 68.2434 98.9979 68.6663 99.0825 69.0047L99.1671 69.4276C99.1671 69.5122 99.1671 69.5122 99.2517 69.5968C99.2517 69.6814 99.3363 69.766 99.3363 69.766C99.3363 69.8506 99.4209 69.8506 99.4209 69.9352C99.4209 70.0198 99.5055 70.0198 99.59 70.0198C99.6746 70.0198 99.6746 70.1043 99.7592 70.1043C99.8438 70.1043 99.8438 70.1043 99.9284 70.1889L100.351 70.2735C100.69 70.3581 101.113 70.2735 101.366 69.9352L101.536 69.766L101.705 69.5968C101.959 69.343 102.043 68.9201 101.959 68.5817L101.874 68.1588C101.789 67.9896 101.705 67.8204 101.62 67.6512C101.536 67.6512 101.366 67.5666 101.113 67.482Z" fill="#0AE8F0"/>
<path d="M90.9611 45.3193C91.0457 45.3193 91.0457 45.4039 91.1303 45.4039C91.2149 45.4039 91.2149 45.4039 91.2995 45.4885L91.7225 45.5731C92.0608 45.6577 92.4838 45.5731 92.7375 45.3193L92.9067 45.1501L93.0759 44.981C93.3297 44.7272 93.4143 44.3042 93.3297 43.9659L93.2451 43.5429C93.1605 43.3737 93.0759 43.2046 92.9913 43.0354C92.8221 42.8662 92.653 42.7816 92.4838 42.7816L92.0608 42.697C91.7225 42.6124 91.2995 42.697 91.0457 43.0354L90.8765 43.2046L90.7074 43.2891C90.4536 43.5429 90.369 43.9659 90.4536 44.3042L90.5382 44.7272C90.5382 44.8118 90.5382 44.8118 90.6228 44.8964C90.6228 44.981 90.7074 45.0656 90.7074 45.0656C90.7074 45.1501 90.792 45.1501 90.792 45.2347C90.8766 45.2347 90.9611 45.3193 90.9611 45.3193Z" fill="#0AE8F0"/>
<path d="M92.5671 51.0716L92.1442 50.9871C91.8058 50.9025 91.3829 50.9871 91.1291 51.3254L90.8753 51.6638C90.6216 51.9176 90.537 52.3405 90.6216 52.6789L90.7062 53.1018C90.7062 53.1864 90.7062 53.1864 90.7907 53.271C90.7907 53.3556 90.8753 53.4402 90.8753 53.4402C90.9599 53.5248 91.0445 53.6094 91.1291 53.694C91.2137 53.694 91.2137 53.7785 91.2983 53.7785C91.3829 53.7785 91.3829 53.7785 91.4675 53.8631L91.8904 53.9477C92.2288 54.0323 92.6517 53.9477 92.9055 53.694L93.1593 53.3556C93.4131 53.1018 93.4976 52.6789 93.4131 52.3405L93.3285 51.9176C93.2439 51.4946 92.9055 51.1562 92.5671 51.0716Z" fill="#0AE8F0"/>
<path d="M82.5867 37.199C82.6713 37.199 82.6713 37.2835 82.7559 37.2835C82.8405 37.2835 82.8405 37.2835 82.9251 37.3681L83.3481 37.4527C83.6864 37.5373 84.1094 37.4527 84.3632 37.1144L84.5323 36.9452L84.7015 36.776C84.9553 36.5222 85.0399 36.0993 84.9553 35.7609L84.7861 35.4225C84.7015 35.2534 84.6169 35.0842 84.5323 34.915C84.3631 34.7458 84.194 34.6612 84.0248 34.6612L83.6018 34.5766C83.2635 34.4921 82.8405 34.5766 82.5867 34.8304L82.4176 34.9996L82.2484 35.1688C81.9946 35.4225 81.91 35.8455 81.9946 36.1839L82.0792 36.6068C82.0792 36.6914 82.0792 36.6914 82.1638 36.776C82.1638 36.8606 82.2484 36.9452 82.2484 36.9452C82.2484 37.0298 82.333 37.0298 82.333 37.1144C82.5022 37.1144 82.5022 37.1144 82.5867 37.199Z" fill="#0AE8F0"/>
<path d="M82.9252 45.5732C83.0098 45.5732 83.0098 45.5732 83.0944 45.6578L83.5174 45.7424C83.8557 45.827 84.2787 45.7424 84.5325 45.404L84.7862 45.0657C85.04 44.8119 85.1246 44.3889 85.04 44.0506L84.9554 43.6276C84.8708 43.2893 84.5325 42.9509 84.1941 42.8663L83.7712 42.7817C83.4328 42.6971 83.0098 42.7817 82.7561 43.0355L82.5023 43.3739C82.2485 43.6276 82.1639 44.0506 82.2485 44.3889L82.3331 44.8119C82.3331 44.8965 82.3331 44.8965 82.4177 44.9811C82.4177 45.0657 82.5023 45.1503 82.5023 45.1503C82.5869 45.2348 82.6715 45.3194 82.7561 45.404C82.7561 45.4886 82.8407 45.5732 82.9252 45.5732Z" fill="#0AE8F0"/>
<path d="M68.0388 37.1143C68.2926 36.8605 68.3772 36.4375 68.2926 36.0992L68.208 35.6762C68.1234 35.507 68.0388 35.3379 67.9542 35.1687C67.785 34.9995 67.6158 34.9149 67.4467 34.9149L67.0237 34.8303C66.6853 34.7457 66.2624 34.8303 66.0086 35.1687L65.8394 35.3379L65.6703 35.507C65.4165 35.7608 65.3319 36.1838 65.4165 36.5221L65.5011 36.9451C65.5011 37.0297 65.5011 37.0297 65.5857 37.1143C65.5857 37.1989 65.6703 37.2834 65.6703 37.2834C65.6703 37.368 65.7549 37.368 65.7549 37.4526C65.8394 37.5372 65.8394 37.5372 65.924 37.5372C66.0086 37.5372 66.0086 37.6218 66.0932 37.6218C66.1778 37.6218 66.1778 37.6218 66.2624 37.7064L66.6853 37.791C67.0237 37.8756 67.4467 37.791 67.7004 37.4526L67.8696 37.2834L68.0388 37.1143Z" fill="#0AE8F0"/>
<path d="M76.5791 35.9295L76.4945 35.5065C76.4099 35.1682 76.0715 34.8298 75.7332 34.7452L75.3102 34.6606C74.9719 34.576 74.5489 34.6606 74.2951 34.9144L74.0414 35.2528C73.7876 35.5065 73.703 35.9295 73.7876 36.2679L73.8722 36.6908C73.8722 36.7754 73.8722 36.7754 73.9568 36.86C73.9568 36.9446 74.0414 37.0292 74.0414 37.0292C74.1259 37.1138 74.2105 37.1983 74.2951 37.2829C74.3797 37.2829 74.3797 37.3675 74.4643 37.3675C74.5489 37.3675 74.5489 37.3675 74.6335 37.4521L75.0564 37.5367C75.3948 37.6213 75.8178 37.5367 76.0715 37.2829L76.3253 36.9446C76.5791 36.6908 76.6637 36.2678 76.5791 35.9295Z" fill="#0AE8F0"/>
<path d="M66.0073 29.2473C66.0919 29.2473 66.0919 29.2473 66.1765 29.3319L66.5994 29.4165C66.9378 29.5011 67.3607 29.4165 67.6145 29.0781L67.8683 28.7397C68.122 28.486 68.2066 28.063 68.122 27.7247L68.0374 27.3017C67.9529 26.9633 67.6145 26.625 67.2761 26.5404L66.8532 26.4558C66.5148 26.3712 66.0919 26.4558 65.8381 26.7942L65.5843 27.1325C65.3305 27.3863 65.246 27.8093 65.3305 28.1476L65.4151 28.5706C65.4151 28.6552 65.4151 28.6552 65.4997 28.7397C65.4997 28.8243 65.5843 28.9089 65.5843 28.9089C65.6689 28.9935 65.7535 29.0781 65.8381 29.1627C65.9227 29.1627 66.0073 29.2473 66.0073 29.2473Z" fill="#0AE8F0"/>
<path d="M117.183 58.8538C116.845 58.7692 116.422 58.8538 116.168 59.1921L115.914 59.5305C115.661 59.7842 115.576 60.2072 115.661 60.5456L115.745 60.9685C115.745 61.0531 115.745 61.0531 115.83 61.1377C115.83 61.2223 115.914 61.3069 115.914 61.3069C115.999 61.3915 116.084 61.4761 116.168 61.5606C116.253 61.5606 116.253 61.6452 116.337 61.6452C116.422 61.6452 116.422 61.6452 116.507 61.7298L116.929 61.8144C117.268 61.899 117.691 61.8144 117.945 61.5606L118.198 61.2223C118.452 60.9685 118.537 60.5456 118.452 60.2072L118.368 59.7842C118.283 59.4459 117.945 59.1075 117.606 59.0229L117.183 58.8538Z" fill="#0AE8F0"/>
<path d="M101.366 51.2407C101.197 51.0715 101.028 50.9869 100.859 50.9869L100.436 50.9023C100.097 50.8177 99.6745 50.9023 99.4207 51.1561L99.2515 51.3253L99.0824 51.4945C98.8286 51.7482 98.744 52.1712 98.8286 52.5095L98.9132 52.9325C98.9132 53.0171 98.9132 53.0171 98.9978 53.1017C98.9978 53.1863 99.0824 53.2709 99.0824 53.2709C99.0824 53.3555 99.167 53.3555 99.167 53.44C99.2516 53.5246 99.2515 53.5246 99.3361 53.5246C99.4207 53.5246 99.4207 53.6092 99.5053 53.6092C99.5899 53.6092 99.5899 53.6092 99.6745 53.6938L100.097 53.7784C100.436 53.863 100.859 53.7784 101.113 53.5246L101.282 53.3555L101.451 53.1863C101.705 52.9325 101.789 52.5095 101.705 52.1712L101.62 51.7482C101.62 51.4945 101.451 51.3253 101.366 51.2407Z" fill="#0AE8F0"/>
<path d="M109.147 50.8177L108.724 50.7331C108.386 50.6486 107.963 50.7331 107.709 51.0715L107.455 51.4099C107.202 51.6636 107.117 52.0866 107.202 52.425L107.286 52.8479C107.286 52.9325 107.286 52.9325 107.371 53.0171C107.371 53.1017 107.455 53.1863 107.455 53.1863C107.54 53.2709 107.625 53.3555 107.709 53.44C107.794 53.44 107.794 53.5246 107.878 53.5246C107.963 53.5246 107.963 53.5246 108.048 53.6092L108.471 53.6938C108.809 53.7784 109.232 53.6938 109.486 53.44L109.739 53.1017C109.993 52.8479 110.078 52.425 109.993 52.0866L109.909 51.6636C109.824 51.1561 109.486 50.9023 109.147 50.8177Z" fill="#0AE8F0"/>
<path d="M109.318 59.1075L108.895 59.0229C108.556 58.9383 108.133 59.0229 107.88 59.2767L107.711 59.4459L107.541 59.6151C107.288 59.8688 107.203 60.2918 107.288 60.6302L107.372 61.0531C107.372 61.1377 107.372 61.1377 107.457 61.2223C107.457 61.3069 107.541 61.3915 107.541 61.3915C107.541 61.4761 107.626 61.4761 107.626 61.5607C107.711 61.6452 107.711 61.6452 107.795 61.6452C107.88 61.6452 107.88 61.7298 107.964 61.7298C108.049 61.7298 108.049 61.7298 108.133 61.8144L108.556 61.899C108.895 61.9836 109.318 61.899 109.572 61.6452L109.741 61.4761L109.91 61.3069C110.164 61.0531 110.248 60.6302 110.164 60.2918L110.079 59.8688C109.994 59.6997 109.91 59.5305 109.825 59.3613C109.656 59.1921 109.487 59.1075 109.318 59.1075Z" fill="#0AE8F0"/>
<path d="M99.1662 36.8602C99.2508 36.8602 99.2508 36.9448 99.3354 36.9448C99.42 36.9448 99.42 36.9448 99.5046 37.0294L99.9275 37.114C100.266 37.1986 100.689 37.114 100.943 36.7756L101.112 36.6064L101.281 36.4372C101.535 36.1835 101.619 35.7605 101.535 35.4222L101.45 34.9992C101.366 34.83 101.281 34.6608 101.196 34.4917C101.027 34.3225 100.858 34.2379 100.689 34.2379L100.266 34.1533C99.9275 34.0687 99.5046 34.1533 99.2508 34.4071L99.0816 34.5763L98.9124 34.7454C98.6587 34.9992 98.5741 35.4222 98.6587 35.7605L98.7433 36.1835C98.7433 36.2681 98.7433 36.2681 98.8279 36.3527C98.8279 36.4372 98.9124 36.5218 98.9124 36.5218C98.9124 36.6064 98.997 36.6064 98.997 36.691C98.997 36.7756 99.0816 36.8602 99.1662 36.8602Z" fill="#0AE8F0"/>
<path d="M100.688 42.6127L100.265 42.5281C99.9269 42.4435 99.504 42.5281 99.2502 42.8664L98.9964 43.2048C98.7427 43.4586 98.6581 43.8815 98.7427 44.2199L98.8272 44.6428C98.8272 44.7274 98.8272 44.7274 98.9118 44.812C98.9118 44.8966 98.9964 44.9812 98.9964 44.9812C99.081 45.0658 99.1656 45.1504 99.2502 45.235C99.3348 45.235 99.3348 45.3196 99.4194 45.3196C99.504 45.3196 99.504 45.3196 99.5886 45.4041L100.012 45.4887C100.35 45.5733 100.773 45.4887 101.027 45.235L101.28 44.8966C101.534 44.6428 101.619 44.2199 101.534 43.8815L101.45 43.4586C101.365 43.0356 101.111 42.7818 100.688 42.6127Z" fill="#0AE8F0"/>
<path d="M90.7072 28.7399C90.7918 28.7399 90.7918 28.8244 90.8764 28.8244C90.961 28.8244 90.961 28.8244 91.0456 28.909L91.4685 28.9936C91.8069 29.0782 92.2299 28.9936 92.4836 28.6553L92.6528 28.4861L92.822 28.3169C93.0758 28.0631 93.1604 27.6402 93.0758 27.3018L92.9912 26.8789C92.9066 26.7097 92.822 26.5405 92.7374 26.3713C92.5682 26.2021 92.399 26.1175 92.2299 26.1175L91.8069 26.033C91.4686 25.9484 91.0456 26.033 90.7918 26.3713L90.6226 26.5405L90.4535 26.7097C90.1997 26.9634 90.1151 27.3864 90.1997 27.7248L90.2843 28.1477C90.2843 28.2323 90.2843 28.2323 90.3689 28.3169C90.3689 28.4015 90.4535 28.4861 90.4535 28.4861C90.4535 28.5707 90.5381 28.5707 90.5381 28.6553C90.6226 28.6553 90.6226 28.7399 90.7072 28.7399Z" fill="#0AE8F0"/>
<path d="M91.0463 37.1144C91.1309 37.1144 91.1309 37.1144 91.2155 37.199L91.6385 37.2835C91.9768 37.3681 92.3998 37.2835 92.6536 37.0298L92.9073 36.6914C93.1611 36.4376 93.2457 36.0147 93.1611 35.6763L93.0765 35.2534C92.9919 34.915 92.6536 34.5766 92.3152 34.4921L91.8922 34.4075C91.5539 34.3229 91.1309 34.4075 90.8772 34.7458L90.6234 35.0842C90.3696 35.338 90.285 35.7609 90.3696 36.0993L90.4542 36.5222C90.4542 36.6068 90.4542 36.6068 90.5388 36.6914C90.5388 36.776 90.6234 36.8606 90.6234 36.8606C90.708 36.9452 90.7926 37.0298 90.8772 37.1144C90.8772 37.1144 90.9617 37.1144 91.0463 37.1144Z" fill="#0AE8F0"/>
<path d="M76.1579 28.6553C76.4117 28.4015 76.4963 27.9786 76.4117 27.6402L76.3271 27.2172C76.2425 27.0481 76.1579 26.8789 76.0733 26.7097C75.9042 26.5405 75.735 26.4559 75.5658 26.4559L75.1429 26.3713C74.8045 26.2867 74.3815 26.3713 74.1278 26.7097L73.9586 26.8789L73.7894 27.0481C73.5356 27.3018 73.451 27.7248 73.5356 28.0631L73.6202 28.4861C73.6202 28.5707 73.6202 28.5707 73.7048 28.6553C73.7048 28.7399 73.7894 28.8245 73.7894 28.8245C73.7894 28.909 73.874 28.909 73.874 28.9936C73.9586 29.0782 73.9586 29.0782 74.0432 29.0782C74.1278 29.0782 74.1278 29.1628 74.2124 29.1628C74.2969 29.1628 74.2969 29.1628 74.3815 29.2474L74.8045 29.332C75.1428 29.4166 75.5658 29.332 75.8196 28.9936L75.9888 28.8245L76.1579 28.6553Z" fill="#0AE8F0"/>
<path d="M84.7861 27.4703L84.7015 27.0473C84.6169 26.709 84.2786 26.3706 83.9402 26.286L83.5172 26.2014C83.1789 26.1168 82.7559 26.2014 82.5022 26.5398L82.2484 26.8781C81.9946 27.1319 81.91 27.5549 81.9946 27.8932L82.0792 28.3162C82.0792 28.4008 82.0792 28.4008 82.1638 28.4854C82.1638 28.5699 82.2484 28.6545 82.2484 28.6545C82.333 28.7391 82.4176 28.8237 82.5022 28.9083C82.5868 28.9083 82.5867 28.9929 82.6713 28.9929C82.7559 28.9929 82.7559 28.9929 82.8405 29.0775L83.2635 29.1621C83.6018 29.2467 84.0248 29.1621 84.2786 28.8237L84.5323 28.4854C84.7861 28.2316 84.8707 27.8932 84.7861 27.4703Z" fill="#0AE8F0"/>
<path d="M125.304 50.395C124.966 50.3104 124.543 50.395 124.289 50.6488L124.035 50.9871C123.782 51.2409 123.697 51.6639 123.782 52.0022L123.866 52.4252C123.866 52.5098 123.866 52.5098 123.951 52.5944C123.951 52.6789 124.035 52.7635 124.035 52.7635C124.12 52.8481 124.205 52.9327 124.289 53.0173C124.374 53.0173 124.374 53.1019 124.458 53.1019C124.543 53.1019 124.543 53.1019 124.628 53.1865L125.051 53.2711C125.389 53.3557 125.812 53.2711 126.066 52.9327L126.319 52.5944C126.573 52.3406 126.658 51.9176 126.573 51.5793L126.489 51.1563C126.404 50.818 126.066 50.4796 125.727 50.395H125.304Z" fill="#0AE8F0"/>
<path d="M109.487 42.7815C109.318 42.6123 109.149 42.5277 108.98 42.5277L108.557 42.4431C108.219 42.3585 107.796 42.4431 107.542 42.7815L107.373 42.9507L107.203 43.1198C106.95 43.3736 106.865 43.7966 106.95 44.1349L107.034 44.5579C107.034 44.6425 107.034 44.6425 107.119 44.7271C107.119 44.8116 107.203 44.8962 107.203 44.8962C107.203 44.9808 107.288 44.9808 107.288 45.0654C107.373 45.15 107.373 45.15 107.457 45.15C107.542 45.15 107.542 45.2346 107.626 45.2346C107.711 45.2346 107.711 45.2346 107.796 45.3192L108.219 45.4038C108.557 45.4884 108.98 45.4038 109.234 45.0654L109.403 44.8962L109.572 44.7271C109.826 44.4733 109.91 44.0503 109.826 43.712L109.741 43.289C109.741 43.0352 109.657 42.8661 109.487 42.7815Z" fill="#0AE8F0"/>
<path d="M117.27 42.3588L116.847 42.2742C116.509 42.1896 116.086 42.2742 115.832 42.6125L115.578 42.9509C115.325 43.2047 115.24 43.6276 115.325 43.966L115.409 44.3889C115.409 44.4735 115.409 44.4735 115.494 44.5581C115.494 44.6427 115.578 44.7273 115.578 44.7273C115.663 44.8119 115.748 44.8965 115.832 44.9811C115.917 44.9811 115.917 45.0657 116.001 45.0657C116.086 45.0657 116.086 45.0657 116.171 45.1502L116.594 45.2348C116.932 45.3194 117.355 45.2348 117.609 44.9811L117.862 44.6427C118.116 44.3889 118.201 43.966 118.116 43.6276L118.032 43.2047C117.947 42.7817 117.693 42.4433 117.27 42.3588Z" fill="#0AE8F0"/>
<path d="M117.439 50.6483L117.016 50.5637C116.678 50.4791 116.255 50.5637 116.001 50.9021L115.832 51.0713L115.662 51.2404C115.409 51.4942 115.324 51.9172 115.409 52.2555L115.493 52.6785C115.493 52.7631 115.493 52.7631 115.578 52.8477C115.578 52.9323 115.662 53.0168 115.662 53.0168C115.662 53.1014 115.747 53.1014 115.747 53.186C115.832 53.2706 115.832 53.2706 115.916 53.2706C116.001 53.2706 116.001 53.3552 116.085 53.3552C116.17 53.3552 116.17 53.3552 116.255 53.4398L116.678 53.5244C117.016 53.609 117.439 53.5244 117.693 53.186L117.862 53.0168L118.031 52.8477C118.285 52.5939 118.369 52.1709 118.285 51.8326L118.2 51.4096C118.116 51.2404 118.031 51.0713 117.946 50.9021C117.777 50.8175 117.608 50.7329 117.439 50.6483Z" fill="#0AE8F0"/>
<path d="M107.287 28.4855C107.372 28.4855 107.372 28.57 107.456 28.57C107.541 28.57 107.541 28.57 107.626 28.6546L108.049 28.7392C108.387 28.8238 108.81 28.7392 109.064 28.4009L109.233 28.2317L109.402 28.0625C109.656 27.8087 109.74 27.3858 109.656 27.0474L109.571 26.6245C109.487 26.4553 109.402 26.2861 109.317 26.1169C109.148 25.9477 108.979 25.8631 108.81 25.8631L108.387 25.7786C108.049 25.694 107.626 25.7786 107.372 26.1169L107.203 26.2861L107.034 26.4553C106.78 26.7091 106.695 27.132 106.78 27.4704L106.864 27.8933C106.864 27.9779 106.864 27.9779 106.949 28.0625C106.949 28.1471 107.034 28.2317 107.034 28.2317C107.034 28.3163 107.118 28.3163 107.118 28.4009C107.203 28.4009 107.203 28.4009 107.287 28.4855Z" fill="#0AE8F0"/>
<path d="M108.895 34.2379L108.472 34.1533C108.134 34.0687 107.711 34.1533 107.457 34.4071L107.203 34.7454C106.95 34.9992 106.865 35.4222 106.95 35.7605L107.034 36.1835C107.034 36.2681 107.034 36.2681 107.119 36.3527C107.119 36.4372 107.203 36.5218 107.203 36.5218C107.288 36.6064 107.373 36.691 107.457 36.7756C107.542 36.7756 107.542 36.8602 107.626 36.8602C107.711 36.8602 107.711 36.8602 107.796 36.9448L108.219 37.0294C108.557 37.114 108.98 37.0294 109.234 36.7756L109.487 36.4372C109.741 36.1835 109.826 35.7605 109.741 35.4222L109.657 34.9992C109.572 34.5763 109.234 34.3225 108.895 34.2379Z" fill="#0AE8F0"/>
<path d="M99.1655 28.74C99.2501 28.74 99.2501 28.74 99.3347 28.8246L99.7576 28.9092C100.096 28.9937 100.519 28.9092 100.773 28.5708L101.026 28.2324C101.28 27.9787 101.365 27.5557 101.28 27.2173L101.196 26.7944C101.111 26.456 100.773 26.1177 100.434 26.0331L100.011 25.9485C99.673 25.8639 99.2501 25.9485 98.9963 26.2868L98.7425 26.6252C98.4888 26.879 98.4042 27.3019 98.4888 27.6403L98.5733 28.0632C98.5733 28.1478 98.5733 28.1478 98.6579 28.2324C98.6579 28.317 98.7425 28.4016 98.7425 28.4016C98.8271 28.4862 98.9117 28.5708 98.9963 28.6554C99.0809 28.6554 99.1655 28.6554 99.1655 28.74Z" fill="#0AE8F0"/>
<path d="M133.509 42.0203C133.171 41.9357 132.748 42.0203 132.494 42.3586L132.241 42.697C131.987 42.9508 131.902 43.3737 131.987 43.7121L132.071 44.135C132.071 44.2196 132.071 44.2196 132.156 44.3042C132.156 44.3888 132.241 44.4734 132.241 44.4734C132.325 44.558 132.41 44.6426 132.494 44.7272C132.579 44.7272 132.579 44.8117 132.664 44.8117C132.748 44.8117 132.748 44.8117 132.833 44.8963L133.256 44.9809C133.594 45.0655 134.017 44.9809 134.271 44.7272L134.525 44.3888C134.778 44.135 134.863 43.7121 134.778 43.3737L134.694 42.9508C134.609 42.6124 134.271 42.274 133.932 42.1894L133.509 42.0203Z" fill="#0AE8F0"/>
<path d="M117.607 34.3225C117.437 34.1533 117.268 34.0687 117.099 34.0687L116.676 33.9841C116.338 33.8995 115.915 33.9841 115.661 34.3225L115.492 34.4917L115.323 34.6608C115.069 34.9146 114.984 35.3376 115.069 35.6759L115.153 36.0989C115.153 36.1835 115.153 36.1835 115.238 36.2681C115.238 36.3527 115.323 36.4373 115.323 36.4373C115.323 36.5218 115.407 36.5218 115.407 36.6064C115.407 36.691 115.492 36.691 115.576 36.691C115.661 36.691 115.661 36.7756 115.746 36.7756C115.83 36.7756 115.83 36.7756 115.915 36.8602L116.338 36.9448C116.676 37.0294 117.099 36.9448 117.353 36.6064L117.522 36.4373L117.691 36.2681C117.945 36.0143 118.029 35.5913 117.945 35.253L117.86 34.83C117.86 34.6608 117.776 34.4917 117.607 34.3225Z" fill="#0AE8F0"/>
<path d="M125.473 33.8998L125.05 33.8152C124.712 33.7306 124.289 33.8152 124.035 34.1535L123.782 34.4919C123.528 34.7457 123.443 35.1686 123.528 35.507L123.612 35.9299C123.612 36.0145 123.612 36.0145 123.697 36.0991C123.697 36.1837 123.782 36.2683 123.782 36.2683C123.866 36.3529 123.951 36.4375 124.035 36.5221C124.12 36.5221 124.12 36.6067 124.205 36.6067C124.289 36.6067 124.289 36.6067 124.374 36.6913L124.797 36.7758C125.135 36.8604 125.558 36.7758 125.812 36.4375L126.066 36.0991C126.319 35.8454 126.404 35.4224 126.319 35.084L126.235 34.6611C126.15 34.3227 125.812 34.069 125.473 33.8998Z" fill="#0AE8F0"/>
<path d="M125.558 42.1893L125.135 42.1047C124.797 42.0201 124.374 42.1047 124.12 42.4431L123.951 42.6123L123.782 42.7815C123.528 43.0352 123.443 43.4582 123.528 43.7965L123.697 44.1349C123.697 44.2195 123.697 44.2195 123.782 44.3041C123.782 44.3887 123.866 44.4733 123.866 44.4733C123.866 44.5579 123.951 44.5579 123.951 44.6424C124.035 44.727 124.035 44.727 124.12 44.727C124.205 44.727 124.205 44.8116 124.289 44.8116C124.374 44.8116 124.374 44.8116 124.458 44.8962L124.881 44.9808C125.22 45.0654 125.643 44.9808 125.896 44.727L126.066 44.5579L126.235 44.3887C126.488 44.1349 126.573 43.712 126.488 43.3736L126.404 42.9506C126.319 42.7815 126.235 42.6123 126.15 42.4431C125.896 42.3585 125.812 42.2739 125.558 42.1893Z" fill="#0AE8F0"/>
<path d="M117.014 25.7789L116.591 25.6943C116.253 25.6097 115.83 25.6943 115.576 25.9481L115.323 26.2865C115.069 26.5402 114.984 26.9632 115.069 27.3015L115.153 27.7245C115.153 27.8091 115.153 27.8091 115.238 27.8937C115.238 27.9783 115.323 28.0629 115.323 28.0629C115.407 28.1474 115.492 28.232 115.576 28.3166C115.661 28.3166 115.661 28.4012 115.746 28.4012C115.83 28.4012 115.83 28.4012 115.915 28.4858L116.338 28.5704C116.676 28.655 117.099 28.5704 117.353 28.232L117.607 27.8937C117.86 27.6399 117.945 27.217 117.86 26.8786L117.776 26.5402C117.691 26.2019 117.353 25.8635 117.014 25.7789Z" fill="#0AE8F0"/>
<path d="M141.631 33.5613C141.292 33.4767 140.869 33.5613 140.615 33.8996L140.362 34.238C140.108 34.4918 140.023 34.9147 140.108 35.2531L140.192 35.676C140.192 35.7606 140.192 35.7606 140.277 35.8452C140.277 35.9298 140.362 36.0144 140.362 36.0144C140.446 36.099 140.531 36.1836 140.615 36.2682C140.7 36.2682 140.7 36.3528 140.785 36.3528C140.869 36.3528 140.869 36.3528 140.954 36.4374L141.377 36.5219C141.715 36.6065 142.138 36.5219 142.392 36.1836L142.646 35.8452C142.899 35.5914 142.984 35.1685 142.899 34.8301L142.815 34.4072C142.73 34.0688 142.392 33.7305 142.053 33.6459L141.631 33.5613Z" fill="#0AE8F0"/>
<path d="M125.812 25.9481C125.642 25.7789 125.473 25.6943 125.304 25.6943L124.881 25.5251C124.543 25.4405 124.12 25.5251 123.866 25.8635L123.697 26.0327L123.528 26.2019C123.274 26.4556 123.189 26.8786 123.274 27.217L123.359 27.6399C123.359 27.7245 123.358 27.7245 123.443 27.8091C123.443 27.8937 123.528 27.9783 123.528 27.9783C123.528 28.0629 123.612 28.0629 123.612 28.1474C123.697 28.232 123.697 28.232 123.781 28.232C123.866 28.232 123.866 28.3166 123.951 28.3166C124.035 28.3166 124.035 28.3166 124.12 28.4012L124.543 28.4858C124.881 28.5704 125.304 28.4858 125.558 28.1474L125.727 27.9783L125.896 27.8091C126.15 27.5553 126.235 27.1324 126.15 26.794L126.065 26.371C125.981 26.2019 125.896 26.0327 125.812 25.9481Z" fill="#0AE8F0"/>
<path d="M133.594 25.5255L133.172 25.4409C132.833 25.3563 132.41 25.4409 132.156 25.6947L131.903 26.033C131.649 26.2868 131.564 26.7098 131.649 27.0481L131.734 27.4711C131.734 27.5557 131.734 27.5557 131.818 27.6403C131.818 27.7248 131.903 27.8094 131.903 27.8094C131.987 27.894 132.072 27.9786 132.156 28.0632C132.241 28.0632 132.241 28.1478 132.326 28.1478C132.41 28.1478 132.41 28.1478 132.495 28.2324L132.918 28.317C133.256 28.4016 133.679 28.317 133.933 28.0632L134.187 27.7248C134.44 27.4711 134.525 27.0481 134.44 26.7098L134.356 26.2868C134.271 25.8639 133.933 25.6101 133.594 25.5255Z" fill="#0AE8F0"/>
<path d="M133.763 33.815L133.34 33.7305C133.002 33.6459 132.579 33.7305 132.325 33.9842L132.156 34.1534L131.987 34.3226C131.733 34.5764 131.648 34.9993 131.733 35.3377L131.817 35.7606C131.817 35.8452 131.817 35.8452 131.902 35.9298C131.902 36.0144 131.987 36.099 131.987 36.099C131.987 36.1836 132.071 36.1836 132.071 36.2682C132.156 36.3528 132.156 36.3528 132.24 36.3528C132.325 36.3528 132.325 36.4374 132.41 36.4374C132.494 36.4374 132.494 36.4374 132.579 36.5219L133.002 36.6065C133.34 36.6911 133.763 36.6065 134.017 36.2682L134.186 36.099L134.355 35.9298C134.609 35.676 134.694 35.2531 134.609 34.9147L134.524 34.4918C134.44 34.3226 134.355 34.1534 134.271 33.9842C134.101 33.8996 133.932 33.815 133.763 33.815Z" fill="#0AE8F0"/>
<path d="M149.75 25.1023C149.411 25.0177 148.988 25.1023 148.735 25.4406L148.481 25.779C148.227 26.0328 148.142 26.4557 148.227 26.7941L148.312 27.2171C148.312 27.3016 148.312 27.3016 148.396 27.3862C148.396 27.4708 148.481 27.5554 148.481 27.5554C148.565 27.64 148.65 27.7246 148.735 27.8092C148.819 27.8092 148.819 27.8938 148.904 27.8938C148.988 27.8938 148.988 27.8938 149.073 27.9784L149.496 28.063C149.834 28.1475 150.257 28.063 150.511 27.7246L150.765 27.3862C151.019 27.1325 151.103 26.7095 151.019 26.3711L150.934 25.9482C150.849 25.6098 150.511 25.2715 150.173 25.1869L149.75 25.1023Z" fill="#0AE8F0"/>
<path d="M141.886 25.3558L141.463 25.2712C141.125 25.1866 140.702 25.2712 140.448 25.6096L140.279 25.7788L140.11 25.948C139.856 26.2017 139.771 26.6247 139.856 26.963L139.941 27.386C139.941 27.4706 139.941 27.4706 140.025 27.5552C140.025 27.6398 140.11 27.7244 140.11 27.7244C140.11 27.809 140.194 27.809 140.194 27.8935C140.279 27.9781 140.279 27.9781 140.363 27.9781C140.448 27.9781 140.448 28.0627 140.533 28.0627C140.617 28.0627 140.617 28.0627 140.702 28.1473L141.125 28.2319C141.463 28.3165 141.886 28.2319 142.14 27.8935L142.309 27.7244L142.478 27.5552C142.732 27.3014 142.817 26.8785 142.732 26.5401L142.647 26.1171C142.563 25.948 142.478 25.7788 142.394 25.6096C142.224 25.525 142.055 25.4404 141.886 25.3558Z" fill="#0AE8F0"/>
<path d="M183.248 217.968C169.883 207.733 164.215 189.292 167.345 166.114C172.928 124.834 205.411 79.0706 242.885 57.1616C243.477 59.0226 243.9 60.9682 244.238 62.9138C208.71 84.2306 178.173 127.626 172.928 166.876C170.052 187.939 174.958 204.518 186.632 213.57L217.761 237.509C215.647 238.355 213.447 239.031 211.248 239.624L183.248 217.968ZM242.123 212.047C242.969 209.594 243.731 206.972 244.238 204.265C243.477 206.887 242.716 209.509 242.123 212.047Z" fill="#0AE8F0"/>
</g>
</g>
</svg>
